<svg width="526" height="220" viewBox="0 0 526 220" fill="none" xmlns="http://www.w3.org/2000/svg">
<rect width="526" height="220" fill="#1A1A24"/>
<path fill-rule="evenodd" clip-rule="evenodd" d="M76.3125 33.6875H56.9375V29.8125C56.9375 28.7424 56.07 27.875 55 27.875C53.9299 27.875 53.0625 28.7424 53.0625 29.8125V33.6875H33.6875C31.5474 33.6875 29.8125 35.4224 29.8125 37.5625V66.625C29.8125 68.7651 31.5474 70.5 33.6875 70.5H43.22L37.9863 77.0391C37.3175 77.875 37.4531 79.0949 38.2891 79.7637C39.125 80.4325 40.3449 80.2969 41.0137 79.4609L48.18 70.5H61.82L68.9863 79.4609C69.6551 80.2969 70.875 80.4325 71.7109 79.7637C72.5469 79.0949 72.6825 77.875 72.0137 77.0391L66.78 70.5H76.3125C78.4526 70.5 80.1875 68.7651 80.1875 66.625V37.5625C80.1875 35.4224 78.4526 33.6875 76.3125 33.6875ZM76.3125 66.625H33.6875V37.5625H76.3125V66.625ZM49.1875 53.0625V58.875C49.1875 59.945 48.3201 60.8125 47.25 60.8125C46.1799 60.8125 45.3125 59.945 45.3125 58.875V53.0625C45.3125 51.9924 46.1799 51.125 47.25 51.125C48.3201 51.125 49.1875 51.9924 49.1875 53.0625ZM56.9375 49.1875V58.875C56.9375 59.945 56.07 60.8125 55 60.8125C53.9299 60.8125 53.0625 59.945 53.0625 58.875V49.1875C53.0625 48.1174 53.9299 47.25 55 47.25C56.07 47.25 56.9375 48.1174 56.9375 49.1875ZM64.6875 45.3125V58.875C64.6875 59.945 63.82 60.8125 62.75 60.8125C61.6799 60.8125 60.8125 59.945 60.8125 58.875V45.3125C60.8125 44.2424 61.6799 43.375 62.75 43.375C63.82 43.375 64.6875 44.2424 64.6875 45.3125Z" fill="#FFE600"/>
<path d="M46.6113 153H42.8096L40.8008 147.355H31.2715L29.2959 153H25.5937L34.1602 129.193H37.9453L46.6113 153ZM39.7051 144.168L36.0029 133.56L32.3672 144.168H39.7051ZM60.8229 153V151.307C60.3802 151.915 59.7604 152.413 58.9635 152.801C58.1667 153.188 57.2868 153.382 56.3239 153.382C54.2432 153.382 52.6605 152.712 51.5758 151.373C50.5023 150.034 49.9655 148.036 49.9655 145.38V135.153H53.4684V145.247C53.4684 146.885 53.7562 148.114 54.3317 148.933C54.9183 149.741 55.859 150.145 57.154 150.145C58.3271 150.145 59.2292 149.752 59.86 148.966C60.5019 148.169 60.8229 147.046 60.8229 145.596V135.153H64.3258V153H60.8229ZM77.3587 152.552C76.9271 152.795 76.418 152.994 75.8314 153.149C75.2559 153.304 74.6195 153.382 73.9222 153.382C73.3135 153.382 72.7767 153.293 72.3118 153.116C71.8581 152.95 71.443 152.685 71.0667 152.319C70.6904 151.943 70.4027 151.456 70.2035 150.858C70.0042 150.25 69.9046 149.514 69.9046 148.65V138.341H67.3646V135.153H69.9046V130.057L73.3411 128.214V135.153H77.7572V138.341H73.3411V148.036C73.3411 148.457 73.3743 148.805 73.4408 149.082C73.5182 149.348 73.6289 149.563 73.7728 149.729C73.9277 149.896 74.1214 150.012 74.3538 150.078C74.5863 150.145 74.863 150.178 75.1839 150.178C75.6377 150.178 76.097 150.106 76.5618 149.962C77.0378 149.818 77.4362 149.652 77.7572 149.464L77.3587 152.552ZM96.2187 143.985C96.2187 145.468 96.014 146.791 95.6045 147.953C95.195 149.115 94.6305 150.1 93.9111 150.908C93.1917 151.716 92.3395 152.33 91.3545 152.751C90.3695 153.172 89.307 153.382 88.167 153.382C87.0381 153.382 85.9922 153.16 85.0293 152.718C84.0775 152.275 83.2474 151.65 82.5391 150.842C81.8418 150.023 81.294 149.043 80.8955 147.903C80.4971 146.752 80.2979 145.479 80.2979 144.085C80.2979 142.624 80.5026 141.318 80.9121 140.167C81.3216 139.016 81.8805 138.042 82.5889 137.245C83.3083 136.437 84.1494 135.823 85.1123 135.402C86.0863 134.982 87.1377 134.771 88.2666 134.771C89.4066 134.771 90.458 134.993 91.4209 135.436C92.3949 135.867 93.236 136.487 93.9443 137.295C94.6527 138.092 95.2061 139.06 95.6045 140.2C96.014 141.329 96.2187 142.591 96.2187 143.985ZM92.6826 144.085C92.6826 143.177 92.5775 142.358 92.3672 141.628C92.1569 140.886 91.8525 140.256 91.4541 139.735C91.0667 139.215 90.5908 138.817 90.0264 138.54C89.4619 138.252 88.8255 138.108 88.1172 138.108C87.4531 138.108 86.8555 138.252 86.3242 138.54C85.804 138.817 85.3558 139.215 84.9795 139.735C84.6143 140.244 84.332 140.859 84.1328 141.578C83.9336 142.298 83.834 143.1 83.834 143.985C83.834 144.97 83.9391 145.839 84.1494 146.592C84.3708 147.344 84.6751 147.975 85.0625 148.484C85.4609 148.993 85.9313 149.381 86.4736 149.646C87.027 149.912 87.6357 150.045 88.2998 150.045C88.9639 150.045 89.5615 149.89 90.0928 149.58C90.6351 149.259 91.0944 148.833 91.4707 148.302C91.8581 147.759 92.1569 147.129 92.3672 146.409C92.5775 145.679 92.6826 144.904 92.6826 144.085ZM120.607 153V142.906C120.607 142.01 120.535 141.252 120.391 140.632C120.247 140.001 120.032 139.492 119.744 139.104C119.467 138.717 119.113 138.44 118.681 138.274C118.25 138.097 117.746 138.009 117.171 138.009C116.551 138.009 116.025 138.114 115.593 138.324C115.162 138.535 114.808 138.844 114.531 139.254C114.254 139.663 114.049 140.156 113.917 140.731C113.795 141.307 113.734 141.916 113.734 142.558V153H110.231V142.906C110.231 142.01 110.159 141.252 110.015 140.632C109.882 140.001 109.672 139.492 109.384 139.104C109.097 138.717 108.737 138.44 108.305 138.274C107.874 138.097 107.37 138.009 106.795 138.009C106.219 138.009 105.704 138.114 105.251 138.324C104.808 138.523 104.448 138.828 104.172 139.237C103.906 139.647 103.707 140.123 103.574 140.665C103.441 141.196 103.375 141.827 103.375 142.558V153H99.8718V135.153H103.375V136.847C103.817 136.194 104.404 135.685 105.134 135.319C105.865 134.954 106.695 134.771 107.625 134.771C108.831 134.771 109.827 134.998 110.613 135.452C111.399 135.895 112.035 136.542 112.522 137.395C112.843 136.996 113.175 136.636 113.518 136.315C113.872 135.994 114.26 135.718 114.68 135.485C115.112 135.253 115.593 135.076 116.125 134.954C116.667 134.832 117.287 134.771 117.984 134.771C118.947 134.771 119.799 134.921 120.541 135.22C121.282 135.507 121.924 135.983 122.466 136.647C123.02 137.3 123.429 138.153 123.695 139.204C123.972 140.244 124.11 141.434 124.11 142.773V153H120.607ZM138.703 153V151.24C138.25 151.661 137.873 151.971 137.575 152.17C137.276 152.358 136.966 152.541 136.645 152.718C136.324 152.884 135.914 153.033 135.416 153.166C134.929 153.31 134.393 153.382 133.806 153.382C133.087 153.382 132.356 153.271 131.615 153.05C130.884 152.84 130.22 152.496 129.622 152.021C129.036 151.534 128.554 150.908 128.178 150.145C127.802 149.381 127.614 148.451 127.614 147.355C127.614 146.359 127.791 145.502 128.145 144.782C128.51 144.052 129.008 143.449 129.639 142.973C130.281 142.497 131.034 142.148 131.897 141.927C132.771 141.694 133.712 141.578 134.719 141.578C135.66 141.578 136.451 141.645 137.093 141.777C137.735 141.899 138.272 142.06 138.703 142.259V140.931C138.703 139.957 138.416 139.21 137.84 138.689C137.265 138.169 136.429 137.909 135.333 137.909C134.415 137.909 133.585 137.998 132.843 138.175C132.102 138.352 131.382 138.634 130.685 139.021L129.324 136.382C130.176 135.851 131.089 135.452 132.063 135.187C133.048 134.91 134.171 134.771 135.433 134.771C136.429 134.771 137.337 134.893 138.156 135.137C138.986 135.38 139.694 135.751 140.281 136.249C140.867 136.747 141.321 137.372 141.642 138.125C141.974 138.878 142.14 139.757 142.14 140.765V153H138.703ZM138.703 145.38C138.371 145.225 138.073 145.109 137.807 145.031C137.541 144.943 137.265 144.871 136.977 144.815C136.689 144.749 136.34 144.699 135.931 144.666C135.533 144.622 135.095 144.6 134.619 144.6C133.491 144.6 132.594 144.838 131.93 145.313C131.277 145.789 130.951 146.437 130.951 147.256C130.951 147.787 131.045 148.241 131.233 148.617C131.421 148.982 131.659 149.281 131.947 149.514C132.234 149.746 132.572 149.923 132.959 150.045C133.358 150.156 133.834 150.211 134.387 150.211C134.852 150.211 135.3 150.145 135.732 150.012C136.163 149.879 136.567 149.707 136.944 149.497C137.32 149.276 137.658 149.032 137.956 148.767C138.255 148.49 138.504 148.213 138.703 147.937V145.38ZM155.023 152.552C154.592 152.795 154.083 152.994 153.496 153.149C152.921 153.304 152.284 153.382 151.587 153.382C150.978 153.382 150.441 153.293 149.977 153.116C149.523 152.95 149.108 152.685 148.731 152.319C148.355 151.943 148.067 151.456 147.868 150.858C147.669 150.25 147.569 149.514 147.569 148.65V138.341H145.029V135.153H147.569V130.057L151.006 128.214V135.153H155.422V138.341H151.006V148.036C151.006 148.457 151.039 148.805 151.105 149.082C151.183 149.348 151.294 149.563 151.438 149.729C151.592 149.896 151.786 150.012 152.019 150.078C152.251 150.145 152.528 150.178 152.849 150.178C153.302 150.178 153.762 150.106 154.227 149.962C154.702 149.818 155.101 149.652 155.422 149.464L155.023 152.552ZM173.302 143.72C173.302 144.041 173.291 144.34 173.269 144.616C173.247 144.893 173.225 145.125 173.203 145.313H161.399C161.499 146.177 161.687 146.918 161.964 147.538C162.24 148.147 162.578 148.65 162.976 149.049C163.375 149.447 163.823 149.741 164.321 149.929C164.83 150.117 165.356 150.211 165.898 150.211C166.285 150.211 166.651 150.178 166.994 150.111C167.337 150.045 167.663 149.945 167.973 149.813C168.294 149.68 168.577 149.547 168.82 149.414C169.063 149.27 169.379 149.06 169.766 148.783L171.841 151.024C171.399 151.445 170.973 151.788 170.563 152.054C170.165 152.308 169.728 152.541 169.252 152.751C168.787 152.95 168.256 153.105 167.658 153.216C167.06 153.326 166.402 153.382 165.682 153.382C164.908 153.382 164.183 153.271 163.508 153.05C162.832 152.84 162.235 152.563 161.715 152.22C161.194 151.866 160.724 151.467 160.303 151.024C159.894 150.571 159.501 149.995 159.125 149.298C158.748 148.59 158.461 147.804 158.261 146.94C158.062 146.066 157.963 145.114 157.963 144.085C157.963 142.58 158.151 141.246 158.527 140.084C158.914 138.922 159.451 137.948 160.137 137.162C160.824 136.376 161.648 135.784 162.611 135.386C163.574 134.976 164.631 134.771 165.782 134.771C167.055 134.771 168.161 135.015 169.102 135.502C170.043 135.978 170.823 136.625 171.443 137.444C172.063 138.252 172.528 139.199 172.838 140.283C173.147 141.368 173.302 142.513 173.302 143.72ZM169.766 142.425C169.722 141.816 169.611 141.241 169.434 140.698C169.268 140.156 169.014 139.68 168.671 139.271C168.339 138.861 167.912 138.54 167.392 138.308C166.883 138.064 166.269 137.942 165.549 137.942C164.93 137.942 164.387 138.048 163.923 138.258C163.458 138.457 163.059 138.745 162.727 139.121C162.395 139.497 162.119 139.962 161.897 140.516C161.687 141.058 161.543 141.694 161.466 142.425H169.766ZM187.746 153V151.307C187.414 151.605 187.071 151.882 186.717 152.137C186.363 152.391 185.981 152.618 185.572 152.817C185.162 153.017 184.753 153.16 184.343 153.249C183.934 153.338 183.513 153.382 183.081 153.382C182.118 153.382 181.222 153.205 180.392 152.851C179.562 152.485 178.837 151.915 178.217 151.141C177.597 150.366 177.11 149.375 176.756 148.169C176.402 146.952 176.225 145.491 176.225 143.786C176.225 142.259 176.413 140.931 176.789 139.802C177.177 138.662 177.691 137.721 178.333 136.98C178.986 136.238 179.733 135.685 180.575 135.319C181.427 134.954 182.318 134.771 183.247 134.771C183.701 134.771 184.144 134.827 184.576 134.938C185.007 135.048 185.417 135.198 185.804 135.386C186.191 135.574 186.546 135.795 186.867 136.05C187.199 136.293 187.492 136.548 187.746 136.813V130.023L191.216 128.214V153H187.746ZM187.78 140.35C187.58 140.084 187.331 139.813 187.033 139.536C186.745 139.259 186.418 139.01 186.053 138.789C185.688 138.557 185.295 138.368 184.874 138.225C184.465 138.081 184.039 138.009 183.596 138.009C182.323 138.009 181.355 138.485 180.691 139.437C180.038 140.377 179.711 141.794 179.711 143.687C179.711 144.804 179.8 145.773 179.977 146.592C180.154 147.4 180.414 148.069 180.757 148.601C181.1 149.121 181.521 149.508 182.019 149.763C182.517 150.017 183.087 150.145 183.729 150.145C184.149 150.145 184.553 150.084 184.941 149.962C185.328 149.829 185.693 149.658 186.036 149.447C186.38 149.226 186.695 148.982 186.983 148.717C187.282 148.44 187.547 148.158 187.78 147.87V140.35ZM220.685 146.16C220.685 147.234 220.508 148.213 220.154 149.099C219.811 149.984 219.28 150.748 218.56 151.39C217.841 152.021 216.928 152.513 215.821 152.867C214.714 153.21 213.397 153.382 211.87 153.382C211.007 153.382 210.171 153.288 209.363 153.1C208.566 152.923 207.808 152.668 207.089 152.336C206.38 152.004 205.711 151.6 205.08 151.124C204.46 150.648 203.901 150.117 203.403 149.53L205.96 147.057C206.358 147.488 206.801 147.881 207.288 148.235C207.775 148.578 208.284 148.872 208.815 149.115C209.346 149.359 209.894 149.547 210.459 149.68C211.023 149.813 211.588 149.879 212.152 149.879C213.834 149.879 215.074 149.591 215.871 149.016C216.679 148.44 217.083 147.571 217.083 146.409C217.083 145.944 216.989 145.535 216.8 145.181C216.612 144.827 216.308 144.5 215.887 144.201C215.467 143.891 214.913 143.598 214.227 143.321C213.541 143.045 212.7 142.757 211.704 142.458C210.442 142.082 209.346 141.705 208.417 141.329C207.487 140.953 206.712 140.51 206.092 140.001C205.484 139.481 205.024 138.861 204.715 138.142C204.416 137.411 204.266 136.515 204.266 135.452C204.266 134.423 204.471 133.499 204.881 132.68C205.29 131.861 205.843 131.169 206.541 130.605C207.249 130.029 208.079 129.592 209.031 129.293C209.994 128.983 211.023 128.828 212.119 128.828C213.026 128.839 213.823 128.917 214.509 129.061C215.207 129.204 215.876 129.426 216.518 129.725C217.171 130.023 217.758 130.355 218.278 130.721C218.798 131.075 219.341 131.518 219.905 132.049L217.382 134.605C216.928 134.152 216.518 133.803 216.153 133.56C215.788 133.316 215.406 133.106 215.008 132.929C214.62 132.752 214.161 132.608 213.63 132.497C213.109 132.386 212.512 132.331 211.837 132.331C211.139 132.331 210.542 132.414 210.044 132.58C209.546 132.735 209.131 132.945 208.799 133.211C208.478 133.477 208.24 133.792 208.085 134.157C207.941 134.511 207.869 134.888 207.869 135.286C207.869 135.707 207.946 136.077 208.101 136.398C208.256 136.719 208.527 137.024 208.915 137.312C209.313 137.588 209.844 137.859 210.508 138.125C211.184 138.391 212.036 138.678 213.065 138.988C214.238 139.342 215.295 139.719 216.236 140.117C217.177 140.505 217.974 140.969 218.627 141.512C219.291 142.054 219.8 142.702 220.154 143.454C220.508 144.196 220.685 145.098 220.685 146.16ZM238.981 143.72C238.981 144.041 238.97 144.34 238.948 144.616C238.925 144.893 238.903 145.125 238.881 145.313H227.077C227.177 146.177 227.365 146.918 227.642 147.538C227.919 148.147 228.256 148.65 228.655 149.049C229.053 149.447 229.501 149.741 229.999 149.929C230.508 150.117 231.034 150.211 231.577 150.211C231.964 150.211 232.329 150.178 232.672 150.111C233.015 150.045 233.342 149.945 233.652 149.813C233.973 149.68 234.255 149.547 234.498 149.414C234.742 149.27 235.057 149.06 235.445 148.783L237.52 151.024C237.077 151.445 236.651 151.788 236.242 152.054C235.843 152.308 235.406 152.541 234.93 152.751C234.465 152.95 233.934 153.105 233.336 153.216C232.739 153.326 232.08 153.382 231.361 153.382C230.586 153.382 229.861 153.271 229.186 153.05C228.511 152.84 227.913 152.563 227.393 152.22C226.873 151.866 226.402 151.467 225.982 151.024C225.572 150.571 225.179 149.995 224.803 149.298C224.427 148.59 224.139 147.804 223.94 146.94C223.741 146.066 223.641 145.114 223.641 144.085C223.641 142.58 223.829 141.246 224.205 140.084C224.593 138.922 225.13 137.948 225.816 137.162C226.502 136.376 227.327 135.784 228.289 135.386C229.252 134.976 230.309 134.771 231.46 134.771C232.733 134.771 233.84 135.015 234.781 135.502C235.721 135.978 236.502 136.625 237.121 137.444C237.741 138.252 238.206 139.199 238.516 140.283C238.826 141.368 238.981 142.513 238.981 143.72ZM235.445 142.425C235.4 141.816 235.29 141.241 235.113 140.698C234.947 140.156 234.692 139.68 234.349 139.271C234.017 138.861 233.591 138.54 233.071 138.308C232.562 138.064 231.947 137.942 231.228 137.942C230.608 137.942 230.066 138.048 229.601 138.258C229.136 138.457 228.738 138.745 228.406 139.121C228.074 139.497 227.797 139.962 227.576 140.516C227.365 141.058 227.221 141.694 227.144 142.425H235.445ZM252.362 138.855C251.986 138.645 251.588 138.485 251.167 138.374C250.758 138.263 250.265 138.208 249.689 138.208C248.572 138.208 247.708 138.595 247.1 139.37C246.491 140.134 246.187 141.279 246.187 142.807V153H242.684V135.153H246.187V136.847C246.386 136.548 246.629 136.277 246.917 136.033C247.205 135.779 247.52 135.557 247.863 135.369C248.217 135.181 248.594 135.037 248.992 134.938C249.391 134.827 249.811 134.771 250.254 134.771C250.973 134.771 251.571 134.838 252.047 134.971C252.523 135.104 252.938 135.286 253.292 135.519L252.362 138.855ZM264.648 153H261.145L254.754 135.153H258.423L262.938 148.816L267.221 135.153H270.924L264.648 153ZM278.146 130.588C278.146 130.898 278.085 131.191 277.963 131.468C277.842 131.733 277.675 131.971 277.465 132.182C277.266 132.381 277.028 132.541 276.751 132.663C276.486 132.785 276.198 132.846 275.888 132.846C275.578 132.846 275.285 132.785 275.008 132.663C274.731 132.541 274.488 132.381 274.278 132.182C274.078 131.971 273.918 131.733 273.796 131.468C273.675 131.191 273.614 130.898 273.614 130.588C273.614 130.278 273.675 129.985 273.796 129.708C273.918 129.431 274.078 129.193 274.278 128.994C274.488 128.784 274.731 128.618 275.008 128.496C275.285 128.374 275.578 128.313 275.888 128.313C276.198 128.313 276.486 128.374 276.751 128.496C277.028 128.618 277.266 128.784 277.465 128.994C277.675 129.193 277.842 129.431 277.963 129.708C278.085 129.985 278.146 130.278 278.146 130.588ZM274.128 153V135.153H277.631V153H274.128ZM295.562 150.045C295.207 150.488 294.826 150.914 294.416 151.323C294.018 151.722 293.564 152.076 293.055 152.386C292.546 152.685 291.97 152.923 291.328 153.1C290.697 153.288 289.978 153.382 289.17 153.382C288.085 153.382 287.073 153.16 286.132 152.718C285.191 152.275 284.372 151.65 283.675 150.842C282.989 150.034 282.446 149.06 282.048 147.92C281.649 146.78 281.45 145.513 281.45 144.118C281.45 142.646 281.649 141.329 282.048 140.167C282.457 139.005 283.016 138.025 283.725 137.229C284.433 136.432 285.263 135.823 286.215 135.402C287.167 134.982 288.185 134.771 289.27 134.771C290.587 134.771 291.76 135.032 292.789 135.552C293.829 136.061 294.765 136.813 295.595 137.81L293.52 140.283C293.099 139.863 292.739 139.536 292.44 139.304C292.142 139.06 291.81 138.844 291.444 138.656C291.09 138.468 290.725 138.33 290.349 138.241C289.983 138.153 289.591 138.108 289.17 138.108C288.539 138.108 287.964 138.247 287.443 138.523C286.934 138.8 286.497 139.193 286.132 139.702C285.767 140.211 285.484 140.831 285.285 141.562C285.086 142.292 284.986 143.111 284.986 144.019C284.986 144.893 285.08 145.701 285.269 146.442C285.457 147.173 285.728 147.809 286.082 148.352C286.447 148.883 286.896 149.298 287.427 149.597C287.958 149.896 288.572 150.045 289.27 150.045C289.69 150.045 290.072 150.001 290.415 149.912C290.758 149.813 291.085 149.674 291.395 149.497C291.716 149.309 292.025 149.076 292.324 148.8C292.634 148.523 292.966 148.202 293.32 147.837L295.562 150.045ZM303.581 130.588C303.581 130.898 303.52 131.191 303.398 131.468C303.276 131.733 303.11 131.971 302.9 132.182C302.701 132.381 302.463 132.541 302.186 132.663C301.921 132.785 301.633 132.846 301.323 132.846C301.013 132.846 300.72 132.785 300.443 132.663C300.166 132.541 299.923 132.381 299.713 132.182C299.513 131.971 299.353 131.733 299.231 131.468C299.109 131.191 299.049 130.898 299.049 130.588C299.049 130.278 299.109 129.985 299.231 129.708C299.353 129.431 299.513 129.193 299.713 128.994C299.923 128.784 300.166 128.618 300.443 128.496C300.72 128.374 301.013 128.313 301.323 128.313C301.633 128.313 301.921 128.374 302.186 128.496C302.463 128.618 302.701 128.784 302.9 128.994C303.11 129.193 303.276 129.431 303.398 129.708C303.52 129.985 303.581 130.278 303.581 130.588ZM299.563 153V135.153H303.066V153H299.563ZM318.589 153V142.906C318.589 141.29 318.301 140.073 317.726 139.254C317.15 138.424 316.215 138.009 314.92 138.009C314.356 138.009 313.836 138.108 313.36 138.308C312.884 138.507 312.485 138.817 312.164 139.237C311.843 139.658 311.611 140.156 311.467 140.731C311.323 141.296 311.251 141.905 311.251 142.558V153H307.748V135.153H311.251V136.847C311.473 136.526 311.744 136.238 312.065 135.983C312.386 135.718 312.74 135.496 313.127 135.319C313.515 135.142 313.93 135.009 314.372 134.921C314.815 134.821 315.269 134.771 315.734 134.771C316.807 134.771 317.737 134.949 318.523 135.303C319.32 135.646 319.978 136.144 320.498 136.797C321.03 137.45 321.428 138.274 321.694 139.271C321.959 140.267 322.092 141.434 322.092 142.773V153H318.589ZM340.67 151.307C340.67 152.535 340.543 153.614 340.288 154.544C340.045 155.485 339.641 156.298 339.076 156.984C338.379 157.814 337.427 158.445 336.221 158.877C335.014 159.309 333.482 159.547 331.622 159.591L330.609 156.735C331.971 156.691 333.149 156.542 334.146 156.287C335.153 156.033 335.856 155.673 336.254 155.208C336.619 154.821 336.863 154.328 336.984 153.73C337.106 153.144 337.167 152.436 337.167 151.605V151.307C336.846 151.605 336.509 151.882 336.154 152.137C335.811 152.38 335.446 152.596 335.059 152.784C334.682 152.972 334.284 153.116 333.863 153.216C333.443 153.326 333 153.382 332.535 153.382C331.583 153.382 330.692 153.205 329.862 152.851C329.032 152.485 328.307 151.915 327.688 151.141C327.068 150.366 326.575 149.375 326.21 148.169C325.856 146.952 325.679 145.491 325.679 143.786C325.679 142.259 325.872 140.931 326.26 139.802C326.647 138.662 327.162 137.721 327.804 136.98C328.457 136.238 329.204 135.685 330.045 135.319C330.897 134.954 331.783 134.771 332.701 134.771C333.155 134.771 333.598 134.827 334.029 134.938C334.461 135.048 334.865 135.198 335.241 135.386C335.629 135.574 335.983 135.795 336.304 136.05C336.636 136.293 336.924 136.548 337.167 136.813V135.153H340.67V151.307ZM333.183 150.145C333.935 150.145 334.649 149.94 335.324 149.53C336.01 149.121 336.647 148.567 337.233 147.87V140.35C337.034 140.084 336.785 139.813 336.486 139.536C336.199 139.259 335.872 139.01 335.507 138.789C335.142 138.557 334.749 138.368 334.328 138.225C333.919 138.081 333.493 138.009 333.05 138.009C331.777 138.009 330.809 138.485 330.145 139.437C329.492 140.377 329.165 141.794 329.165 143.687C329.165 145.778 329.492 147.378 330.145 148.484C330.809 149.591 331.821 150.145 333.183 150.145Z" fill="#FFE600"/>
<path d="M466.445 141C466.445 131.182 474.405 123.223 484.223 123.223C494.041 123.223 502.001 131.182 502.001 141C502.001 150.819 494.041 158.778 484.223 158.778C474.405 158.778 466.445 150.819 466.445 141Z" fill="white"/>
<path d="M475.781 142.244L481.143 147.222L492.67 134.777" stroke="#1A1A24" stroke-width="1.77778" stroke-linecap="round" stroke-linejoin="round"/>
</svg>
