<svg width="294" height="256" viewBox="0 0 294 256" fill="none" xmlns="http://www.w3.org/2000/svg">
<g filter="url(#filter0_d_2304_89274)">
<rect x="50" y="50" width="194" height="156" rx="20" fill="#35343E"/>
<rect x="50.5" y="50.5" width="193" height="155" rx="19.5" stroke="black" stroke-opacity="0.15"/>
<rect x="62" y="62" width="170" height="100" rx="12" fill="#E6E6E9"/>
<path d="M71.97 182.398C71.97 183.059 71.9023 183.656 71.7668 184.187C71.6366 184.718 71.4491 185.192 71.2043 185.609C70.9647 186.021 70.6756 186.377 70.337 186.68C70.0036 186.982 69.6338 187.232 69.2275 187.43C68.8264 187.622 68.394 187.766 67.9304 187.859C67.472 187.953 67.0006 188 66.5162 188H63.4533V176.795H66.5162C67.2663 176.795 67.9721 176.902 68.6336 177.116C69.3004 177.329 69.8786 177.663 70.3682 178.116C70.8631 178.569 71.2538 179.15 71.5403 179.858C71.8267 180.562 71.97 181.408 71.97 182.398ZM70.2588 182.398C70.2588 181.809 70.1885 181.273 70.0479 180.788C69.9072 180.299 69.6859 179.879 69.3837 179.53C69.0816 179.181 68.6935 178.91 68.2195 178.718C67.7455 178.525 67.1777 178.428 66.5162 178.428H65.1332V186.367H66.5162C67.1777 186.367 67.7455 186.271 68.2195 186.078C68.6935 185.885 69.0816 185.614 69.3837 185.265C69.6859 184.916 69.9072 184.5 70.0479 184.015C70.1885 183.525 70.2588 182.986 70.2588 182.398ZM81.1821 183.757C81.1821 184.455 81.0857 185.078 80.893 185.625C80.7003 186.172 80.4346 186.635 80.096 187.016C79.7574 187.396 79.3563 187.685 78.8927 187.883C78.4291 188.081 77.9291 188.18 77.3925 188.18C76.8612 188.18 76.369 188.076 75.9158 187.867C75.4678 187.659 75.0772 187.365 74.7438 186.984C74.4156 186.599 74.1578 186.138 73.9702 185.601C73.7827 185.06 73.689 184.46 73.689 183.804C73.689 183.117 73.7853 182.502 73.9781 181.96C74.1708 181.418 74.4338 180.96 74.7672 180.585C75.1058 180.205 75.5017 179.916 75.9549 179.718C76.4133 179.52 76.9081 179.421 77.4394 179.421C77.976 179.421 78.4708 179.525 78.924 179.733C79.3824 179.936 79.7783 180.228 80.1116 180.608C80.445 180.983 80.7055 181.439 80.893 181.976C81.0857 182.507 81.1821 183.101 81.1821 183.757ZM79.5178 183.804C79.5178 183.377 79.4683 182.992 79.3694 182.648C79.2704 182.299 79.1271 182.002 78.9396 181.757C78.7573 181.512 78.5333 181.325 78.2677 181.194C78.002 181.059 77.7025 180.991 77.3691 180.991C77.0566 180.991 76.7753 181.059 76.5253 181.194C76.2804 181.325 76.0695 181.512 75.8924 181.757C75.7205 181.997 75.5876 182.286 75.4939 182.624C75.4001 182.963 75.3532 183.341 75.3532 183.757C75.3532 184.221 75.4027 184.63 75.5017 184.984C75.6059 185.338 75.7491 185.635 75.9314 185.875C76.119 186.114 76.3403 186.297 76.5956 186.422C76.856 186.547 77.1425 186.609 77.4551 186.609C77.7676 186.609 78.0489 186.536 78.2989 186.39C78.5542 186.239 78.7703 186.039 78.9474 185.789C79.1297 185.534 79.2704 185.237 79.3694 184.898C79.4683 184.554 79.5178 184.19 79.5178 183.804ZM89.4566 186.609C89.2899 186.818 89.1102 187.018 88.9174 187.211C88.7299 187.398 88.5163 187.565 88.2767 187.711C88.0371 187.852 87.7662 187.964 87.4641 188.047C87.1672 188.135 86.8286 188.18 86.4484 188.18C85.9379 188.18 85.4613 188.076 85.0185 187.867C84.5757 187.659 84.1903 187.365 83.8621 186.984C83.5392 186.604 83.2839 186.146 83.0964 185.609C82.9089 185.073 82.8151 184.476 82.8151 183.82C82.8151 183.127 82.9089 182.507 83.0964 181.96C83.2891 181.413 83.5522 180.952 83.8856 180.577C84.2189 180.202 84.6096 179.916 85.0576 179.718C85.5055 179.52 85.9848 179.421 86.4953 179.421C87.1151 179.421 87.6673 179.543 88.1517 179.788C88.6414 180.028 89.0815 180.382 89.4722 180.851L88.4955 182.015C88.2976 181.817 88.1283 181.663 87.9876 181.554C87.847 181.439 87.6907 181.338 87.5188 181.249C87.3521 181.161 87.1802 181.095 87.0031 181.054C86.8312 181.012 86.6463 180.991 86.4484 180.991C86.1515 180.991 85.8806 181.056 85.6358 181.187C85.3962 181.317 85.1904 181.502 85.0185 181.741C84.8466 181.981 84.7138 182.273 84.62 182.617C84.5263 182.96 84.4794 183.346 84.4794 183.773C84.4794 184.184 84.5237 184.565 84.6122 184.914C84.7008 185.257 84.8284 185.557 84.9951 185.812C85.167 186.062 85.3779 186.258 85.628 186.398C85.878 186.539 86.1671 186.609 86.4953 186.609C86.6932 186.609 86.8729 186.588 87.0344 186.547C87.1959 186.5 87.3495 186.435 87.4954 186.351C87.6464 186.263 87.7923 186.153 87.9329 186.023C88.0788 185.893 88.2351 185.742 88.4017 185.57L89.4566 186.609ZM96.5434 188V187.203C96.335 187.49 96.0433 187.724 95.6683 187.906C95.2932 188.089 94.8791 188.18 94.4259 188.18C93.4466 188.18 92.7018 187.865 92.1913 187.234C91.686 186.604 91.4334 185.664 91.4334 184.414V179.601H93.082V184.351C93.082 185.122 93.2174 185.7 93.4883 186.086C93.7644 186.466 94.2072 186.656 94.8166 186.656C95.3688 186.656 95.7933 186.471 96.0902 186.101C96.3923 185.726 96.5434 185.198 96.5434 184.515V179.601H98.192V188H96.5434ZM110.389 188V183.249C110.389 182.827 110.355 182.471 110.287 182.179C110.22 181.882 110.118 181.642 109.983 181.46C109.852 181.278 109.686 181.148 109.482 181.069C109.279 180.986 109.042 180.944 108.771 180.944C108.48 180.944 108.232 180.994 108.029 181.093C107.826 181.192 107.659 181.338 107.529 181.53C107.399 181.723 107.303 181.955 107.24 182.226C107.183 182.497 107.154 182.783 107.154 183.085V188H105.505V183.249C105.505 182.827 105.472 182.471 105.404 182.179C105.341 181.882 105.242 181.642 105.107 181.46C104.972 181.278 104.802 181.148 104.599 181.069C104.396 180.986 104.159 180.944 103.888 180.944C103.617 180.944 103.375 180.994 103.161 181.093C102.953 181.187 102.784 181.33 102.654 181.523C102.529 181.715 102.435 181.939 102.372 182.195C102.31 182.445 102.278 182.742 102.278 183.085V188H100.63V179.601H102.278V180.397C102.487 180.09 102.763 179.851 103.107 179.679C103.45 179.507 103.841 179.421 104.279 179.421C104.847 179.421 105.315 179.528 105.685 179.741C106.055 179.95 106.355 180.254 106.584 180.655C106.735 180.468 106.891 180.299 107.053 180.147C107.219 179.996 107.402 179.866 107.599 179.757C107.803 179.647 108.029 179.564 108.279 179.507C108.534 179.449 108.826 179.421 109.154 179.421C109.608 179.421 110.009 179.491 110.358 179.632C110.707 179.767 111.009 179.991 111.264 180.304C111.524 180.611 111.717 181.012 111.842 181.507C111.972 181.997 112.038 182.557 112.038 183.187V188H110.389ZM121.226 183.632C121.226 183.783 121.221 183.924 121.211 184.054C121.2 184.184 121.19 184.294 121.179 184.382H115.624C115.671 184.789 115.759 185.138 115.89 185.429C116.02 185.716 116.179 185.953 116.366 186.14C116.554 186.328 116.765 186.466 116.999 186.555C117.239 186.643 117.486 186.687 117.741 186.687C117.924 186.687 118.096 186.672 118.257 186.64C118.419 186.609 118.572 186.562 118.718 186.5C118.869 186.437 119.002 186.375 119.117 186.312C119.231 186.245 119.38 186.146 119.562 186.015L120.539 187.07C120.33 187.268 120.13 187.43 119.937 187.555C119.749 187.674 119.544 187.784 119.32 187.883C119.101 187.977 118.851 188.049 118.57 188.102C118.288 188.154 117.978 188.18 117.64 188.18C117.275 188.18 116.934 188.128 116.616 188.023C116.298 187.924 116.017 187.794 115.772 187.633C115.528 187.466 115.306 187.279 115.108 187.07C114.915 186.857 114.731 186.586 114.553 186.258C114.376 185.924 114.241 185.554 114.147 185.148C114.053 184.737 114.007 184.289 114.007 183.804C114.007 183.096 114.095 182.468 114.272 181.921C114.454 181.374 114.707 180.916 115.03 180.546C115.353 180.176 115.741 179.897 116.194 179.71C116.647 179.517 117.145 179.421 117.687 179.421C118.286 179.421 118.807 179.535 119.249 179.765C119.692 179.989 120.059 180.293 120.351 180.679C120.643 181.059 120.862 181.504 121.007 182.015C121.153 182.525 121.226 183.064 121.226 183.632ZM119.562 183.023C119.541 182.736 119.489 182.465 119.406 182.21C119.327 181.955 119.208 181.731 119.046 181.538C118.89 181.346 118.689 181.194 118.445 181.085C118.205 180.97 117.916 180.913 117.577 180.913C117.286 180.913 117.03 180.963 116.812 181.062C116.593 181.155 116.405 181.291 116.249 181.468C116.093 181.645 115.962 181.864 115.858 182.124C115.759 182.38 115.692 182.679 115.655 183.023H119.562ZM128.391 188V183.249C128.391 182.489 128.256 181.916 127.985 181.53C127.714 181.14 127.274 180.944 126.664 180.944C126.399 180.944 126.154 180.991 125.93 181.085C125.706 181.179 125.518 181.325 125.367 181.523C125.216 181.721 125.107 181.955 125.039 182.226C124.971 182.491 124.938 182.778 124.938 183.085V188H123.289V179.601H124.938V180.397C125.042 180.246 125.169 180.111 125.32 179.991C125.471 179.866 125.638 179.762 125.82 179.679C126.003 179.595 126.198 179.533 126.406 179.491C126.615 179.444 126.828 179.421 127.047 179.421C127.552 179.421 127.99 179.504 128.36 179.671C128.735 179.832 129.045 180.067 129.29 180.374C129.54 180.681 129.727 181.069 129.852 181.538C129.977 182.007 130.04 182.557 130.04 183.187V188H128.391ZM136.353 187.789C136.15 187.904 135.91 187.997 135.634 188.07C135.363 188.143 135.064 188.18 134.736 188.18C134.449 188.18 134.197 188.138 133.978 188.055C133.764 187.977 133.569 187.852 133.392 187.68C133.215 187.503 133.079 187.273 132.985 186.992C132.892 186.706 132.845 186.359 132.845 185.953V181.101H131.649V179.601H132.845V177.202L134.462 176.334V179.601H136.541V181.101H134.462V185.664C134.462 185.862 134.478 186.026 134.509 186.156C134.546 186.281 134.598 186.383 134.665 186.461C134.738 186.539 134.829 186.594 134.939 186.625C135.048 186.656 135.178 186.672 135.329 186.672C135.543 186.672 135.759 186.638 135.978 186.57C136.202 186.502 136.39 186.424 136.541 186.336L136.353 187.789ZM143.776 188V186.578H146.284V179.39H144.026V178.272C144.406 178.251 144.742 178.212 145.034 178.155C145.331 178.098 145.586 178.012 145.8 177.897C146.013 177.783 146.185 177.637 146.315 177.46C146.451 177.277 146.547 177.056 146.604 176.795H147.98V186.578H150.269V188H143.776Z" fill="white"/>
</g>
<path fill-rule="evenodd" clip-rule="evenodd" d="M133.781 101.708C133.781 100.644 134.644 99.7812 135.708 99.7812H157.292C158.356 99.7812 159.219 100.644 159.219 101.708V123.292C159.219 124.356 158.356 125.219 157.292 125.219H135.708C134.644 125.219 133.781 124.356 133.781 123.292V101.708ZM135.708 97.4688C133.367 97.4688 131.469 99.3669 131.469 101.708V123.292C131.469 125.633 133.367 127.531 135.708 127.531H157.292C159.633 127.531 161.531 125.633 161.531 123.292V101.708C161.531 99.3669 159.633 97.4688 157.292 97.4688H135.708Z" fill="black"/>
<path fill-rule="evenodd" clip-rule="evenodd" d="M137.635 104.792C137.635 104.153 138.153 103.635 138.792 103.635L154.208 103.635C154.847 103.635 155.365 104.153 155.365 104.792C155.365 105.43 154.847 105.948 154.208 105.948L138.792 105.948C138.153 105.948 137.635 105.43 137.635 104.792Z" fill="black"/>
<path fill-rule="evenodd" clip-rule="evenodd" d="M137.635 112.5C137.635 111.861 138.153 111.344 138.792 111.344L154.208 111.344C154.847 111.344 155.365 111.861 155.365 112.5C155.365 113.139 154.847 113.656 154.208 113.656L138.792 113.656C138.153 113.656 137.635 113.139 137.635 112.5Z" fill="black"/>
<path fill-rule="evenodd" clip-rule="evenodd" d="M137.635 120.208C137.635 119.57 138.153 119.052 138.792 119.052L148.042 119.052C148.68 119.052 149.198 119.57 149.198 120.208C149.198 120.847 148.68 121.365 148.042 121.365L138.792 121.365C138.153 121.365 137.635 120.847 137.635 120.208Z" fill="black"/>
<defs>
<filter id="filter0_d_2304_89274" x="0" y="0" width="294" height="256" filterUnits="userSpaceOnUse" color-interpolation-filters="sRGB">
<feFlood flood-opacity="0" result="BackgroundImageFix"/>
<feColorMatrix in="SourceAlpha" type="matrix" values="0 0 0 0 0 0 0 0 0 0 0 0 0 0 0 0 0 0 127 0" result="hardAlpha"/>
<feOffset/>
<feGaussianBlur stdDeviation="25"/>
<feComposite in2="hardAlpha" operator="out"/>
<feColorMatrix type="matrix" values="0 0 0 0 0 0 0 0 0 0 0 0 0 0 0 0 0 0 0.05 0"/>
<feBlend mode="normal" in2="BackgroundImageFix" result="effect1_dropShadow_2304_89274"/>
<feBlend mode="normal" in="SourceGraphic" in2="effect1_dropShadow_2304_89274" result="shape"/>
</filter>
</defs>
</svg>
