<svg width="953" height="394" viewBox="0 0 953 394" fill="none" xmlns="http://www.w3.org/2000/svg">
<path opacity="0.11" d="M51.6058 2.73047L303.535 3.17309L323.025 16.3414L492.843 16.5627L507.822 25.9687H584.159L605.815 15.7881H915.313L927.223 22.8703L925.238 370.005L905.206 381.956L371.029 382.288L351.719 372.55L179.736 372.439L165.118 382.398L34.4616 382.73L20.0244 373.435L19.8438 155.439L29.0477 150.68L28.6864 99.2244L38.612 99.003L38.4313 67.3548H34.281L34.1003 55.957L34.281 16.3414L51.6058 2.73047Z" fill="#1A1A24"/>
<path opacity="0.33" fill-rule="evenodd" clip-rule="evenodd" d="M29.5441 15.2232L47.6058 1.32374L48.1472 0.992811L49.0503 0.330926H50.4949H51.2181L302.274 0H302.997H304.26L305.164 0.661885L305.706 0.992811L324.49 13.7891L493.185 13.6788H493.727H495.172L495.894 14.2304L496.437 14.5613L510.524 23.4967H583.312L603.361 14.2304L603.722 14.0097L604.626 13.6788H606.07L916.549 13.7891H917.091H918.355L919.258 14.3407L919.62 14.5613L929.915 20.7389L930.276 20.9595L931.179 21.5111V22.2832V22.7245L930.276 370.873V371.314V372.086L929.373 372.638L928.831 372.969L911.311 383.118L910.951 383.448L910.048 384H367.657L366.754 383.448L366.393 383.228L348.692 373.851L181.442 373.741L168.076 383.007L167.535 383.338L166.632 384H119.852L120.032 382.125V381.132V379.477H107.389V381.132V382.125V384H90.7728V382.125V381.132V379.808H83.729V384H31.5302L30.6271 383.448L30.0856 383.118L16.5394 375.175L15.9979 374.844L15.0949 374.292V373.189L14.9141 155.762V155.211V154.438L15.9979 153.887L16.5394 153.556L24.1257 149.695L23.4025 97.9581V96.9652V95.0899H28.0987H32.9757V69.9385H28.2795H26.6541H23.5833V68.0632V67.0704V58.135V57.1422V55.2669H26.6541H28.2795H28.821L28.6411 16.9882V16.6573V15.9954L29.1826 15.4438L29.5441 15.2232ZM53.5657 5.9569L37.8518 17.981L38.2134 58.135V59.1278V61.0032H35.1425H33.5172H32.7949V64.3126L37.6719 64.4229H39.2972H42.1873V67.1807V97.9581V100.716H37.6719H32.7949L33.3364 151.019V151.46V152.342L32.2534 152.894L31.711 153.225L24.1257 157.086L24.3056 371.976L35.1425 378.374H74.5174V374.182H77.5873H79.2136H95.469H97.0944H98.1783V373.961H101.248H102.694L124.547 373.851H126.174H129.244V375.727V376.719V378.374H162.477L175.843 369.108L176.385 368.777L177.288 368.225H178.552H179.275H350.498H352.305L353.027 368.666L353.569 368.887L371.088 378.374H906.435L921.064 369.77L922.148 23.9379L914.563 19.4151H607.695L587.648 28.5711L587.286 28.7917L586.564 29.1227H584.939H508.537H506.551L505.647 28.5711L505.106 28.2402L491.198 19.4151H322.322H321.6H320.336L319.433 18.8636L318.891 18.5326L300.107 5.73626L53.5657 5.9569Z" fill="#32FFFF"/>
<g filter="url(#filter0_d_2265_28349)">
<path d="M620.445 372.73H684.381L704.609 382.922H600.578L620.445 372.73Z" fill="#FFE600"/>
<path d="M684.263 373.23L702.506 382.422H602.647L620.567 373.23H684.263Z" stroke="#FFE600"/>
</g>
<g filter="url(#filter1_d_2265_28349)">
<path d="M944.999 90.1367V42.1709L931.453 26.8164V105.219L944.999 90.1367Z" fill="#FFE600"/>
<path d="M944.499 42.3594V89.9443L931.953 103.914V28.1387L944.499 42.3594Z" stroke="#FFE600"/>
</g>
<g filter="url(#filter2_d_2265_28349)">
<path d="M907.977 346.09V298.124L921.522 282.77V361.173L907.977 346.09Z" fill="#FFE600"/>
<path d="M921.022 359.867L908.477 345.897V298.312L921.022 284.092V359.867Z" stroke="#FFE600"/>
</g>
<g filter="url(#filter3_d_2265_28349)">
<path d="M199.071 357.918H262.827L283.236 368.109H179.023L199.071 357.918Z" fill="#FFE600"/>
<path d="M262.71 358.418L281.116 367.609H181.109L199.19 358.418H262.71Z" stroke="#FFE600"/>
</g>
<g filter="url(#filter4_d_2265_28349)">
<path d="M8 254.964V206.862L21.5458 191.508V269.911L8 254.964Z" fill="#FFE600"/>
<path d="M21.0459 268.614L8.5 254.771V207.051L21.0459 192.83V268.614Z" stroke="#FFE600"/>
</g>
<g filter="url(#filter5_d_2265_28349)">
<path d="M341.406 30.6246H405.342L425.57 20.4336H321.539L341.406 30.6246Z" fill="#FFE600"/>
<path d="M423.467 20.9336L405.222 30.125H341.528L323.61 20.9336H423.467Z" stroke="#FFE600"/>
</g>
<path d="M89.6966 37.4286L83.6742 47.587V54.2305H81.1551V47.587L75.1326 37.4286H78.0853L82.4322 45.1265L86.8026 37.4286H89.6966ZM100.265 47.8682C100.265 48.9149 100.121 49.8484 99.8317 50.6686C99.5426 51.4887 99.1443 52.1839 98.6365 52.7542C98.1288 53.3244 97.5274 53.7579 96.8322 54.0547C96.137 54.3515 95.3871 54.5 94.5825 54.5C93.7858 54.5 93.0476 54.3437 92.3681 54.0313C91.6963 53.7188 91.1105 53.2775 90.6105 52.7073C90.1184 52.1293 89.7318 51.438 89.4506 50.6334C89.1694 49.821 89.0288 48.9228 89.0288 47.9385C89.0288 46.9075 89.1733 45.9857 89.4623 45.1734C89.7513 44.361 90.1458 43.6736 90.6457 43.1112C91.1534 42.541 91.7471 42.1075 92.4266 41.8107C93.114 41.5138 93.8561 41.3654 94.6528 41.3654C95.4574 41.3654 96.1994 41.5216 96.879 41.8341C97.5664 42.1387 98.1601 42.5762 98.66 43.1464C99.1599 43.7088 99.5505 44.3923 99.8317 45.1968C100.121 45.9936 100.265 46.884 100.265 47.8682ZM97.7695 47.9385C97.7695 47.298 97.6953 46.72 97.5469 46.2045C97.3985 45.6811 97.1837 45.2359 96.9025 44.8687C96.6291 44.5016 96.2932 44.2204 95.8948 44.0251C95.4964 43.822 95.0473 43.7205 94.5474 43.7205C94.0787 43.7205 93.6569 43.822 93.282 44.0251C92.9148 44.2204 92.5985 44.5016 92.3329 44.8687C92.0751 45.2281 91.876 45.6616 91.7353 46.1693C91.5947 46.677 91.5244 47.2434 91.5244 47.8682C91.5244 48.5634 91.5987 49.1766 91.7471 49.7078C91.9033 50.2389 92.1181 50.6842 92.3915 51.0435C92.6727 51.4028 93.0047 51.6762 93.3874 51.8637C93.778 52.0511 94.2076 52.1449 94.6763 52.1449C95.1449 52.1449 95.5667 52.0355 95.9417 51.8168C96.3244 51.5903 96.6486 51.2896 96.9142 50.9146C97.1876 50.5319 97.3985 50.0866 97.5469 49.5789C97.6953 49.0634 97.7695 48.5166 97.7695 47.9385ZM117.044 37.4286L111.021 47.587V54.2305H108.502V47.587L102.48 37.4286H105.432L109.779 45.1265L114.15 37.4286H117.044ZM133.072 39.9008V54.2305H130.553V39.9008H125.655V37.4286H137.97V39.9008H133.072ZM145.351 44.2478C145.086 44.0993 144.805 43.9861 144.508 43.908C144.219 43.8299 143.871 43.7908 143.465 43.7908C142.676 43.7908 142.067 44.0642 141.637 44.611C141.208 45.15 140.993 45.9584 140.993 47.0364V54.2305H138.521V41.6349H140.993V42.83C141.133 42.6191 141.305 42.4277 141.508 42.2559C141.711 42.0762 141.934 41.92 142.176 41.7872C142.426 41.6544 142.692 41.5529 142.973 41.4826C143.254 41.4045 143.551 41.3654 143.863 41.3654C144.371 41.3654 144.793 41.4123 145.129 41.506C145.465 41.5998 145.758 41.7286 146.008 41.8927L145.351 44.2478ZM158.158 47.6808C158.158 47.9073 158.15 48.1182 158.134 48.3135C158.119 48.5088 158.103 48.6728 158.088 48.8056H149.757C149.827 49.4149 149.96 49.9382 150.155 50.3756C150.351 50.8053 150.589 51.1607 150.87 51.4419C151.151 51.7231 151.468 51.9301 151.819 52.0629C152.178 52.1957 152.549 52.262 152.932 52.262C153.206 52.262 153.463 52.2386 153.705 52.1917C153.948 52.1449 154.178 52.0746 154.397 51.9808C154.623 51.8871 154.822 51.7934 154.994 51.6996C155.166 51.5981 155.389 51.4497 155.662 51.2544L157.127 52.8362C156.814 53.133 156.514 53.3751 156.225 53.5626C155.943 53.7423 155.635 53.9063 155.299 54.0547C154.971 54.1953 154.596 54.3047 154.174 54.3828C153.752 54.4609 153.288 54.5 152.78 54.5C152.233 54.5 151.721 54.4218 151.245 54.2656C150.768 54.1172 150.347 53.9219 149.98 53.6798C149.612 53.4298 149.28 53.1486 148.984 52.8362C148.695 52.5159 148.417 52.1097 148.152 51.6176C147.886 51.1177 147.683 50.5631 147.542 49.9538C147.402 49.3368 147.332 48.665 147.332 47.9385C147.332 46.8762 147.464 45.935 147.73 45.1148C148.003 44.2946 148.382 43.6072 148.866 43.0526C149.351 42.498 149.933 42.0802 150.612 41.7989C151.292 41.5099 152.038 41.3654 152.85 41.3654C153.748 41.3654 154.53 41.5373 155.194 41.881C155.857 42.2168 156.408 42.6738 156.846 43.2518C157.283 43.822 157.611 44.4899 157.83 45.2554C158.049 46.0209 158.158 46.8294 158.158 47.6808ZM155.662 46.7669C155.631 46.3373 155.553 45.9311 155.428 45.5483C155.311 45.1656 155.131 44.8297 154.889 44.5407C154.655 44.2517 154.354 44.0251 153.987 43.8611C153.627 43.6893 153.194 43.6033 152.686 43.6033C152.249 43.6033 151.866 43.6775 151.538 43.826C151.21 43.9666 150.929 44.1696 150.694 44.4352C150.46 44.7008 150.265 45.0289 150.108 45.4194C149.96 45.8022 149.858 46.2513 149.804 46.7669H155.662ZM168.902 54.2305V47.1067C168.902 45.9662 168.699 45.107 168.293 44.529C167.887 43.9431 167.227 43.6502 166.313 43.6502C165.914 43.6502 165.547 43.7205 165.211 43.8611C164.876 44.0017 164.594 44.2204 164.368 44.5172C164.141 44.8141 163.977 45.1656 163.876 45.5718C163.774 45.9701 163.723 46.3997 163.723 46.8606V54.2305H161.251V41.6349H163.723V42.83C163.88 42.6035 164.071 42.4004 164.297 42.2208C164.524 42.0333 164.774 41.8771 165.047 41.7521C165.321 41.6271 165.614 41.5334 165.926 41.4709C166.239 41.4006 166.559 41.3654 166.887 41.3654C167.645 41.3654 168.301 41.4904 168.855 41.7404C169.418 41.9825 169.882 42.334 170.25 42.7949C170.625 43.2557 170.906 43.8377 171.093 44.5407C171.281 45.2437 171.374 46.0678 171.374 47.0129V54.2305H168.902ZM182.517 54.2305V53.0354C182.283 53.2463 182.041 53.4415 181.791 53.6212C181.541 53.8009 181.271 53.961 180.982 54.1016C180.693 54.2422 180.404 54.3437 180.115 54.4062C179.826 54.4687 179.529 54.5 179.225 54.5C178.545 54.5 177.912 54.375 177.327 54.125C176.741 53.8672 176.229 53.465 175.792 52.9182C175.354 52.3714 175.011 51.6723 174.761 50.8209C174.511 49.9616 174.386 48.9306 174.386 47.7276C174.386 46.6497 174.518 45.7124 174.784 44.9156C175.057 44.1111 175.421 43.4471 175.874 42.9238C176.335 42.4004 176.862 42.0098 177.455 41.7521C178.057 41.4943 178.686 41.3654 179.342 41.3654C179.662 41.3654 179.975 41.4045 180.279 41.4826C180.584 41.5607 180.873 41.6662 181.146 41.7989C181.42 41.9317 181.67 42.088 181.896 42.2676C182.13 42.4395 182.337 42.6191 182.517 42.8066V38.0144L184.966 36.7373V54.2305H182.517ZM182.541 45.3023C182.4 45.1148 182.224 44.9234 182.013 44.7281C181.81 44.5329 181.58 44.3571 181.322 44.2009C181.064 44.0369 180.787 43.9041 180.49 43.8025C180.201 43.701 179.9 43.6502 179.588 43.6502C178.69 43.6502 178.006 43.9861 177.537 44.6578C177.077 45.3218 176.846 46.3216 176.846 47.6573C176.846 48.4463 176.909 49.1298 177.034 49.7078C177.159 50.278 177.342 50.7506 177.584 51.1255C177.826 51.4926 178.123 51.766 178.475 51.9457C178.826 52.1254 179.229 52.2152 179.682 52.2152C179.978 52.2152 180.264 52.1722 180.537 52.0863C180.81 51.9926 181.068 51.8715 181.31 51.7231C181.552 51.5669 181.775 51.395 181.978 51.2075C182.189 51.0123 182.376 50.8131 182.541 50.61V45.3023Z" fill="white"/>
<defs>
<filter id="filter0_d_2265_28349" x="592.578" y="367.73" width="120.031" height="26.1914" filterUnits="userSpaceOnUse" color-interpolation-filters="sRGB">
<feFlood flood-opacity="0" result="BackgroundImageFix"/>
<feColorMatrix in="SourceAlpha" type="matrix" values="0 0 0 0 0 0 0 0 0 0 0 0 0 0 0 0 0 0 127 0" result="hardAlpha"/>
<feOffset dy="3"/>
<feGaussianBlur stdDeviation="4"/>
<feComposite in2="hardAlpha" operator="out"/>
<feColorMatrix type="matrix" values="0 0 0 0 0 0 0 0 0 0 0 0 0 0 0 0 0 0 0.5 0"/>
<feBlend mode="normal" in2="BackgroundImageFix" result="effect1_dropShadow_2265_28349"/>
<feBlend mode="normal" in="SourceGraphic" in2="effect1_dropShadow_2265_28349" result="shape"/>
</filter>
<filter id="filter1_d_2265_28349" x="923.453" y="21.8164" width="29.5469" height="94.4023" filterUnits="userSpaceOnUse" color-interpolation-filters="sRGB">
<feFlood flood-opacity="0" result="BackgroundImageFix"/>
<feColorMatrix in="SourceAlpha" type="matrix" values="0 0 0 0 0 0 0 0 0 0 0 0 0 0 0 0 0 0 127 0" result="hardAlpha"/>
<feOffset dy="3"/>
<feGaussianBlur stdDeviation="4"/>
<feComposite in2="hardAlpha" operator="out"/>
<feColorMatrix type="matrix" values="0 0 0 0 0 0 0 0 0 0 0 0 0 0 0 0 0 0 0.5 0"/>
<feBlend mode="normal" in2="BackgroundImageFix" result="effect1_dropShadow_2265_28349"/>
<feBlend mode="normal" in="SourceGraphic" in2="effect1_dropShadow_2265_28349" result="shape"/>
</filter>
<filter id="filter2_d_2265_28349" x="899.977" y="277.77" width="29.5469" height="94.4023" filterUnits="userSpaceOnUse" color-interpolation-filters="sRGB">
<feFlood flood-opacity="0" result="BackgroundImageFix"/>
<feColorMatrix in="SourceAlpha" type="matrix" values="0 0 0 0 0 0 0 0 0 0 0 0 0 0 0 0 0 0 127 0" result="hardAlpha"/>
<feOffset dy="3"/>
<feGaussianBlur stdDeviation="4"/>
<feComposite in2="hardAlpha" operator="out"/>
<feColorMatrix type="matrix" values="0 0 0 0 0 0 0 0 0 0 0 0 0 0 0 0 0 0 0.5 0"/>
<feBlend mode="normal" in2="BackgroundImageFix" result="effect1_dropShadow_2265_28349"/>
<feBlend mode="normal" in="SourceGraphic" in2="effect1_dropShadow_2265_28349" result="shape"/>
</filter>
<filter id="filter3_d_2265_28349" x="171.023" y="352.918" width="120.211" height="26.1914" filterUnits="userSpaceOnUse" color-interpolation-filters="sRGB">
<feFlood flood-opacity="0" result="BackgroundImageFix"/>
<feColorMatrix in="SourceAlpha" type="matrix" values="0 0 0 0 0 0 0 0 0 0 0 0 0 0 0 0 0 0 127 0" result="hardAlpha"/>
<feOffset dy="3"/>
<feGaussianBlur stdDeviation="4"/>
<feComposite in2="hardAlpha" operator="out"/>
<feColorMatrix type="matrix" values="0 0 0 0 0 0 0 0 0 0 0 0 0 0 0 0 0 0 0.5 0"/>
<feBlend mode="normal" in2="BackgroundImageFix" result="effect1_dropShadow_2265_28349"/>
<feBlend mode="normal" in="SourceGraphic" in2="effect1_dropShadow_2265_28349" result="shape"/>
</filter>
<filter id="filter4_d_2265_28349" x="0" y="186.508" width="29.5469" height="94.4023" filterUnits="userSpaceOnUse" color-interpolation-filters="sRGB">
<feFlood flood-opacity="0" result="BackgroundImageFix"/>
<feColorMatrix in="SourceAlpha" type="matrix" values="0 0 0 0 0 0 0 0 0 0 0 0 0 0 0 0 0 0 127 0" result="hardAlpha"/>
<feOffset dy="3"/>
<feGaussianBlur stdDeviation="4"/>
<feComposite in2="hardAlpha" operator="out"/>
<feColorMatrix type="matrix" values="0 0 0 0 0 0 0 0 0 0 0 0 0 0 0 0 0 0 0.5 0"/>
<feBlend mode="normal" in2="BackgroundImageFix" result="effect1_dropShadow_2265_28349"/>
<feBlend mode="normal" in="SourceGraphic" in2="effect1_dropShadow_2265_28349" result="shape"/>
</filter>
<filter id="filter5_d_2265_28349" x="313.539" y="15.4336" width="120.031" height="26.1914" filterUnits="userSpaceOnUse" color-interpolation-filters="sRGB">
<feFlood flood-opacity="0" result="BackgroundImageFix"/>
<feColorMatrix in="SourceAlpha" type="matrix" values="0 0 0 0 0 0 0 0 0 0 0 0 0 0 0 0 0 0 127 0" result="hardAlpha"/>
<feOffset dy="3"/>
<feGaussianBlur stdDeviation="4"/>
<feComposite in2="hardAlpha" operator="out"/>
<feColorMatrix type="matrix" values="0 0 0 0 0 0 0 0 0 0 0 0 0 0 0 0 0 0 0.5 0"/>
<feBlend mode="normal" in2="BackgroundImageFix" result="effect1_dropShadow_2265_28349"/>
<feBlend mode="normal" in="SourceGraphic" in2="effect1_dropShadow_2265_28349" result="shape"/>
</filter>
</defs>
</svg>
