<svg width="44" height="44" viewBox="0 0 44 44" fill="none" xmlns="http://www.w3.org/2000/svg">
<path d="M0 22C0 9.84974 9.84974 0 22 0C34.1503 0 44 9.84974 44 22C44 34.1503 34.1503 44 22 44C9.84974 44 0 34.1503 0 22Z" fill="#3B3B3B"/>
<path fill-rule="evenodd" clip-rule="evenodd" d="M17.1641 15.832V28.1654H26.8307V17.8725L24.7903 15.832H17.1641ZM16.1641 15.732C16.1641 15.235 16.567 14.832 17.0641 14.832H24.8317C25.0704 14.832 25.2993 14.9269 25.4681 15.0956L27.5671 17.1947C27.7359 17.3634 27.8307 17.5924 27.8307 17.831V28.2654C27.8307 28.7624 27.4278 29.1654 26.9307 29.1654H17.0641C16.567 29.1654 16.1641 28.7624 16.1641 28.2654V15.732Z" fill="white"/>
<path fill-rule="evenodd" clip-rule="evenodd" d="M24.6641 14.832C24.9402 14.832 25.1641 15.0559 25.1641 15.332V17.4987H27.3307C27.6069 17.4987 27.8307 17.7226 27.8307 17.9987C27.8307 18.2748 27.6069 18.4987 27.3307 18.4987H25.0641C24.567 18.4987 24.1641 18.0958 24.1641 17.5987V15.332C24.1641 15.0559 24.3879 14.832 24.6641 14.832Z" fill="white"/>
</svg>
