<svg width="526" height="220" viewBox="0 0 526 220" fill="none" xmlns="http://www.w3.org/2000/svg">
<rect width="526" height="220" fill="#1A1A24"/>
<path fill-rule="evenodd" clip-rule="evenodd" d="M83.2875 60.425C82.4315 61.067 81.217 60.8935 80.575 60.0375C78.2068 56.8542 74.4676 54.9846 70.5 55C69.7211 54.9999 69.0179 54.5334 68.7151 53.8157C68.5119 53.3341 68.5119 52.7909 68.7151 52.3093C69.0179 51.5916 69.7211 51.1251 70.5 51.125C73.5205 51.1247 76.0375 48.811 76.2914 45.8012C76.5453 42.7913 74.4516 40.0886 71.4738 39.5822C68.496 39.0759 65.6267 40.9348 64.8716 43.8594C64.604 44.896 63.5468 45.5195 62.5102 45.252C61.4736 44.9844 60.8501 43.9272 61.1177 42.8906C62.1524 38.8869 65.6145 35.9813 69.7371 35.6569C73.8596 35.3325 77.7336 37.6608 79.3818 41.4535C81.03 45.2461 80.089 49.6668 77.0391 52.4595C79.6736 53.6001 81.9638 55.4103 83.6823 57.7101C83.9906 58.1222 84.1222 58.6401 84.0482 59.1494C83.9741 59.6588 83.7004 60.1177 83.2875 60.425ZM70.2384 75.3438C70.6202 75.9444 70.642 76.7059 70.2952 77.3274C69.9484 77.9488 69.2887 78.3301 68.5771 78.3205C67.8655 78.3109 67.2164 77.9119 66.8866 77.2812C64.4033 73.0764 59.8833 70.4965 55 70.4965C50.1167 70.4965 45.5967 73.0764 43.1134 77.2812C42.7836 77.9119 42.1345 78.3109 41.4229 78.3205C40.7113 78.3301 40.0516 77.9488 39.7048 77.3274C39.358 76.7059 39.3798 75.9444 39.7616 75.3438C41.64 72.1163 44.5041 69.5765 47.933 68.0975C43.9768 65.0685 42.3909 59.8553 43.99 55.1364C45.589 50.4174 50.0175 47.2422 55 47.2422C59.9825 47.2422 64.411 50.4174 66.01 55.1364C67.6091 59.8553 66.0231 65.0685 62.067 68.0975C65.4959 69.5765 68.36 72.1163 70.2384 75.3438ZM55 66.625C59.2802 66.625 62.75 63.1552 62.75 58.875C62.75 54.5948 59.2802 51.125 55 51.125C50.7198 51.125 47.25 54.5948 47.25 58.875C47.25 63.1552 50.7198 66.625 55 66.625ZM41.4375 53.0625C41.4375 51.9924 40.5701 51.125 39.5 51.125C36.4795 51.1247 33.9625 48.811 33.7086 45.8012C33.4547 42.7913 35.5484 40.0886 38.5262 39.5822C41.504 39.0759 44.3733 40.9348 45.1284 43.8594C45.396 44.896 46.4532 45.5195 47.4898 45.252C48.5264 44.9844 49.1499 43.9272 48.8823 42.8906C47.8476 38.8869 44.3855 35.9813 40.2629 35.6569C36.1404 35.3325 32.2664 37.6608 30.6182 41.4535C28.97 45.2461 29.911 49.6668 32.9609 52.4595C30.329 53.6012 28.0414 55.4113 26.325 57.7101C25.6823 58.5661 25.8552 59.7811 26.7113 60.4238C27.5673 61.0665 28.7823 60.8935 29.425 60.0375C31.7932 56.8542 35.5324 54.9846 39.5 55C40.5701 55 41.4375 54.1326 41.4375 53.0625Z" fill="#FFE600"/>
<path d="M27.0879 153V129.193H30.6572V149.497H42.5273V153H27.0879ZM60.6901 143.985C60.6901 145.468 60.4853 146.791 60.0758 147.953C59.6663 149.115 59.1019 150.1 58.3825 150.908C57.6631 151.716 56.8109 152.33 55.8258 152.751C54.8408 153.172 53.7783 153.382 52.6383 153.382C51.5094 153.382 50.4635 153.16 49.5006 152.718C48.5488 152.275 47.7187 151.65 47.0104 150.842C46.3132 150.023 45.7653 149.043 45.3669 147.903C44.9684 146.752 44.7692 145.479 44.7692 144.085C44.7692 142.624 44.974 141.318 45.3835 140.167C45.793 139.016 46.3519 138.042 47.0602 137.245C47.7796 136.437 48.6208 135.823 49.5837 135.402C50.5576 134.982 51.609 134.771 52.738 134.771C53.8779 134.771 54.9294 134.993 55.8922 135.436C56.8662 135.867 57.7073 136.487 58.4157 137.295C59.124 138.092 59.6774 139.06 60.0758 140.2C60.4853 141.329 60.6901 142.591 60.6901 143.985ZM57.154 144.085C57.154 143.177 57.0488 142.358 56.8385 141.628C56.6282 140.886 56.3239 140.256 55.9254 139.735C55.5381 139.215 55.0622 138.817 54.4977 138.54C53.9333 138.252 53.2969 138.108 52.5885 138.108C51.9245 138.108 51.3268 138.252 50.7956 138.54C50.2754 138.817 49.8271 139.215 49.4508 139.735C49.0856 140.244 48.8034 140.859 48.6042 141.578C48.4049 142.298 48.3053 143.1 48.3053 143.985C48.3053 144.97 48.4105 145.839 48.6208 146.592C48.8421 147.344 49.1465 147.975 49.5339 148.484C49.9323 148.993 50.4027 149.381 50.945 149.646C51.4984 149.912 52.1071 150.045 52.7712 150.045C53.4352 150.045 54.0329 149.89 54.5641 149.58C55.1064 149.259 55.5657 148.833 55.9421 148.302C56.3294 147.759 56.6282 147.129 56.8385 146.409C57.0488 145.679 57.154 144.904 57.154 144.085ZM74.4036 153V151.24C73.9499 151.661 73.5736 151.971 73.2747 152.17C72.9759 152.358 72.666 152.541 72.345 152.718C72.0241 152.884 71.6146 153.033 71.1165 153.166C70.6296 153.31 70.0928 153.382 69.5062 153.382C68.7868 153.382 68.0563 153.271 67.3148 153.05C66.5843 152.84 65.9202 152.496 65.3226 152.021C64.736 151.534 64.2546 150.908 63.8783 150.145C63.502 149.381 63.3138 148.451 63.3138 147.355C63.3138 146.359 63.4909 145.502 63.8451 144.782C64.2103 144.052 64.7083 143.449 65.3392 142.973C65.9811 142.497 66.7337 142.148 67.597 141.927C68.4714 141.694 69.4121 141.578 70.4193 141.578C71.36 141.578 72.1514 141.645 72.7933 141.777C73.4352 141.899 73.972 142.06 74.4036 142.259V140.931C74.4036 139.957 74.1159 139.21 73.5404 138.689C72.9648 138.169 72.1292 137.909 71.0335 137.909C70.1149 137.909 69.2848 137.998 68.5433 138.175C67.8018 138.352 67.0824 138.634 66.3851 139.021L65.0238 136.382C65.876 135.851 66.7891 135.452 67.763 135.187C68.748 134.91 69.8714 134.771 71.1331 134.771C72.1292 134.771 73.0368 134.893 73.8558 135.137C74.6859 135.38 75.3942 135.751 75.9808 136.249C76.5674 136.747 77.0212 137.372 77.3421 138.125C77.6741 138.878 77.8402 139.757 77.8402 140.765V153H74.4036ZM74.4036 145.38C74.0716 145.225 73.7728 145.109 73.5072 145.031C73.2415 144.943 72.9648 144.871 72.6771 144.815C72.3893 144.749 72.0407 144.699 71.6312 144.666C71.2327 144.622 70.7956 144.6 70.3197 144.6C69.1908 144.6 68.2943 144.838 67.6302 145.313C66.9772 145.789 66.6507 146.437 66.6507 147.256C66.6507 147.787 66.7448 148.241 66.9329 148.617C67.1211 148.982 67.359 149.281 67.6468 149.514C67.9346 149.746 68.2721 149.923 68.6595 150.045C69.0579 150.156 69.5339 150.211 70.0872 150.211C70.5521 150.211 71.0003 150.145 71.432 150.012C71.8636 149.879 72.2676 149.707 72.6439 149.497C73.0202 149.276 73.3577 149.032 73.6566 148.767C73.9554 148.49 74.2044 148.213 74.4036 147.937V145.38ZM93.0313 153V142.906C93.0313 141.29 92.7435 140.073 92.168 139.254C91.5924 138.424 90.6572 138.009 89.3623 138.009C88.7979 138.009 88.2777 138.108 87.8018 138.308C87.3258 138.507 86.9274 138.817 86.6064 139.237C86.2855 139.658 86.0531 140.156 85.9092 140.731C85.7653 141.296 85.6934 141.905 85.6934 142.558V153H82.1904V135.153H85.6934V136.847C85.9147 136.526 86.1859 136.238 86.5068 135.983C86.8278 135.718 87.182 135.496 87.5693 135.319C87.9567 135.142 88.3717 135.009 88.8145 134.921C89.2572 134.821 89.7109 134.771 90.1758 134.771C91.2494 134.771 92.179 134.949 92.9648 135.303C93.7617 135.646 94.4202 136.144 94.9404 136.797C95.4717 137.45 95.8701 138.274 96.1357 139.271C96.4014 140.267 96.5342 141.434 96.5342 142.773V153H93.0313ZM125.87 146.16C125.87 147.234 125.693 148.213 125.339 149.099C124.996 149.984 124.465 150.748 123.745 151.39C123.026 152.021 122.113 152.513 121.006 152.867C119.899 153.21 118.582 153.382 117.055 153.382C116.192 153.382 115.356 153.288 114.548 153.1C113.751 152.923 112.993 152.668 112.274 152.336C111.565 152.004 110.896 151.6 110.265 151.124C109.645 150.648 109.086 150.117 108.588 149.53L111.145 147.057C111.543 147.488 111.986 147.881 112.473 148.235C112.96 148.578 113.469 148.872 114 149.115C114.532 149.359 115.079 149.547 115.644 149.68C116.208 149.813 116.773 149.879 117.337 149.879C119.02 149.879 120.259 149.591 121.056 149.016C121.864 148.44 122.268 147.571 122.268 146.409C122.268 145.944 122.174 145.535 121.986 145.181C121.798 144.827 121.493 144.5 121.073 144.201C120.652 143.891 120.099 143.598 119.412 143.321C118.726 143.045 117.885 142.757 116.889 142.458C115.627 142.082 114.532 141.705 113.602 141.329C112.672 140.953 111.897 140.51 111.278 140.001C110.669 139.481 110.21 138.861 109.9 138.142C109.601 137.411 109.452 136.515 109.452 135.452C109.452 134.423 109.656 133.499 110.066 132.68C110.475 131.861 111.029 131.169 111.726 130.605C112.434 130.029 113.264 129.592 114.216 129.293C115.179 128.983 116.208 128.828 117.304 128.828C118.212 128.839 119.008 128.917 119.695 129.061C120.392 129.204 121.062 129.426 121.703 129.725C122.356 130.023 122.943 130.355 123.463 130.721C123.983 131.075 124.526 131.518 125.09 132.049L122.567 134.605C122.113 134.152 121.703 133.803 121.338 133.56C120.973 133.316 120.591 133.106 120.193 132.929C119.805 132.752 119.346 132.608 118.815 132.497C118.295 132.386 117.697 132.331 117.022 132.331C116.325 132.331 115.727 132.414 115.229 132.58C114.731 132.735 114.316 132.945 113.984 133.211C113.663 133.477 113.425 133.792 113.27 134.157C113.126 134.511 113.054 134.888 113.054 135.286C113.054 135.707 113.132 136.077 113.286 136.398C113.441 136.719 113.713 137.024 114.1 137.312C114.498 137.588 115.03 137.859 115.694 138.125C116.369 138.391 117.221 138.678 118.25 138.988C119.424 139.342 120.48 139.719 121.421 140.117C122.362 140.505 123.159 140.969 123.812 141.512C124.476 142.054 124.985 142.702 125.339 143.454C125.693 144.196 125.87 145.098 125.87 146.16ZM144.166 143.72C144.166 144.041 144.155 144.34 144.133 144.616C144.111 144.893 144.089 145.125 144.066 145.313H132.263C132.362 146.177 132.55 146.918 132.827 147.538C133.104 148.147 133.441 148.65 133.84 149.049C134.238 149.447 134.687 149.741 135.185 149.929C135.694 150.117 136.219 150.211 136.762 150.211C137.149 150.211 137.514 150.178 137.857 150.111C138.201 150.045 138.527 149.945 138.837 149.813C139.158 149.68 139.44 149.547 139.684 149.414C139.927 149.27 140.243 149.06 140.63 148.783L142.705 151.024C142.262 151.445 141.836 151.788 141.427 152.054C141.028 152.308 140.591 152.541 140.115 152.751C139.65 152.95 139.119 153.105 138.522 153.216C137.924 153.326 137.265 153.382 136.546 153.382C135.771 153.382 135.046 153.271 134.371 153.05C133.696 152.84 133.098 152.563 132.578 152.22C132.058 151.866 131.588 151.467 131.167 151.024C130.758 150.571 130.365 149.995 129.988 149.298C129.612 148.59 129.324 147.804 129.125 146.94C128.926 146.066 128.826 145.114 128.826 144.085C128.826 142.58 129.014 141.246 129.391 140.084C129.778 138.922 130.315 137.948 131.001 137.162C131.687 136.376 132.512 135.784 133.475 135.386C134.438 134.976 135.494 134.771 136.646 134.771C137.918 134.771 139.025 135.015 139.966 135.502C140.907 135.978 141.687 136.625 142.307 137.444C142.926 138.252 143.391 139.199 143.701 140.283C144.011 141.368 144.166 142.513 144.166 143.72ZM140.63 142.425C140.586 141.816 140.475 141.241 140.298 140.698C140.132 140.156 139.877 139.68 139.534 139.271C139.202 138.861 138.776 138.54 138.256 138.308C137.747 138.064 137.133 137.942 136.413 137.942C135.793 137.942 135.251 138.048 134.786 138.258C134.321 138.457 133.923 138.745 133.591 139.121C133.259 139.497 132.982 139.962 132.761 140.516C132.55 141.058 132.407 141.694 132.329 142.425H140.63ZM157.548 138.855C157.171 138.645 156.773 138.485 156.352 138.374C155.943 138.263 155.45 138.208 154.875 138.208C153.757 138.208 152.894 138.595 152.285 139.37C151.676 140.134 151.372 141.279 151.372 142.807V153H147.869V135.153H151.372V136.847C151.571 136.548 151.814 136.277 152.102 136.033C152.39 135.779 152.705 135.557 153.049 135.369C153.403 135.181 153.779 135.037 154.177 134.938C154.576 134.827 154.996 134.771 155.439 134.771C156.159 134.771 156.756 134.838 157.232 134.971C157.708 135.104 158.123 135.286 158.477 135.519L157.548 138.855ZM169.833 153H166.33L159.939 135.153H163.608L168.123 148.816L172.407 135.153H176.109L169.833 153ZM183.331 130.588C183.331 130.898 183.27 131.191 183.148 131.468C183.027 131.733 182.861 131.971 182.65 132.182C182.451 132.381 182.213 132.541 181.937 132.663C181.671 132.785 181.383 132.846 181.073 132.846C180.763 132.846 180.47 132.785 180.193 132.663C179.917 132.541 179.673 132.381 179.463 132.182C179.264 131.971 179.103 131.733 178.981 131.468C178.86 131.191 178.799 130.898 178.799 130.588C178.799 130.278 178.86 129.985 178.981 129.708C179.103 129.431 179.264 129.193 179.463 128.994C179.673 128.784 179.917 128.618 180.193 128.496C180.47 128.374 180.763 128.313 181.073 128.313C181.383 128.313 181.671 128.374 181.937 128.496C182.213 128.618 182.451 128.784 182.65 128.994C182.861 129.193 183.027 129.431 183.148 129.708C183.27 129.985 183.331 130.278 183.331 130.588ZM179.314 153V135.153H182.816V153H179.314ZM200.747 150.045C200.393 150.488 200.011 150.914 199.601 151.323C199.203 151.722 198.749 152.076 198.24 152.386C197.731 152.685 197.155 152.923 196.513 153.1C195.883 153.288 195.163 153.382 194.355 153.382C193.271 153.382 192.258 153.16 191.317 152.718C190.376 152.275 189.557 151.65 188.86 150.842C188.174 150.034 187.632 149.06 187.233 147.92C186.835 146.78 186.635 145.513 186.635 144.118C186.635 142.646 186.835 141.329 187.233 140.167C187.643 139.005 188.202 138.025 188.91 137.229C189.618 136.432 190.448 135.823 191.4 135.402C192.352 134.982 193.37 134.771 194.455 134.771C195.772 134.771 196.945 135.032 197.974 135.552C199.015 136.061 199.95 136.813 200.78 137.81L198.705 140.283C198.284 139.863 197.925 139.536 197.626 139.304C197.327 139.06 196.995 138.844 196.63 138.656C196.275 138.468 195.91 138.33 195.534 138.241C195.169 138.153 194.776 138.108 194.355 138.108C193.724 138.108 193.149 138.247 192.629 138.523C192.119 138.8 191.682 139.193 191.317 139.702C190.952 140.211 190.67 140.831 190.47 141.562C190.271 142.292 190.172 143.111 190.172 144.019C190.172 144.893 190.266 145.701 190.454 146.442C190.642 147.173 190.913 147.809 191.267 148.352C191.633 148.883 192.081 149.298 192.612 149.597C193.143 149.896 193.758 150.045 194.455 150.045C194.875 150.045 195.257 150.001 195.6 149.912C195.943 149.813 196.27 149.674 196.58 149.497C196.901 149.309 197.211 149.076 197.509 148.8C197.819 148.523 198.151 148.202 198.506 147.837L200.747 150.045ZM218.461 143.72C218.461 144.041 218.45 144.34 218.428 144.616C218.406 144.893 218.384 145.125 218.362 145.313H206.558C206.658 146.177 206.846 146.918 207.122 147.538C207.399 148.147 207.737 148.65 208.135 149.049C208.534 149.447 208.982 149.741 209.48 149.929C209.989 150.117 210.515 150.211 211.057 150.211C211.444 150.211 211.81 150.178 212.153 150.111C212.496 150.045 212.822 149.945 213.132 149.813C213.453 149.68 213.735 149.547 213.979 149.414C214.222 149.27 214.538 149.06 214.925 148.783L217 151.024C216.558 151.445 216.132 151.788 215.722 152.054C215.324 152.308 214.886 152.541 214.411 152.751C213.946 152.95 213.414 153.105 212.817 153.216C212.219 153.326 211.561 153.382 210.841 153.382C210.066 153.382 209.342 153.271 208.666 153.05C207.991 152.84 207.394 152.563 206.873 152.22C206.353 151.866 205.883 151.467 205.462 151.024C205.053 150.571 204.66 149.995 204.284 149.298C203.907 148.59 203.62 147.804 203.42 146.94C203.221 146.066 203.121 145.114 203.121 144.085C203.121 142.58 203.31 141.246 203.686 140.084C204.073 138.922 204.61 137.948 205.296 137.162C205.982 136.376 206.807 135.784 207.77 135.386C208.733 134.976 209.79 134.771 210.941 134.771C212.214 134.771 213.32 135.015 214.261 135.502C215.202 135.978 215.982 136.625 216.602 137.444C217.222 138.252 217.687 139.199 217.996 140.283C218.306 141.368 218.461 142.513 218.461 143.72ZM214.925 142.425C214.881 141.816 214.77 141.241 214.593 140.698C214.427 140.156 214.173 139.68 213.829 139.271C213.497 138.861 213.071 138.54 212.551 138.308C212.042 138.064 211.428 137.942 210.708 137.942C210.089 137.942 209.546 138.048 209.081 138.258C208.617 138.457 208.218 138.745 207.886 139.121C207.554 139.497 207.277 139.962 207.056 140.516C206.846 141.058 206.702 141.694 206.624 142.425H214.925Z" fill="#FFE600"/>
<path d="M467 141C467 131.335 474.835 123.5 484.5 123.5C494.165 123.5 502 131.335 502 141C502 150.665 494.165 158.5 484.5 158.5C474.835 158.5 467 150.665 467 141Z" fill="#00C864"/>
<path d="M476.055 142.244L481.416 147.222L492.944 134.777" stroke="#1A1A24" stroke-width="1.77778" stroke-linecap="round" stroke-linejoin="round"/>
</svg>
