<svg width="20" height="20" viewBox="0 0 20 20" fill="none" xmlns="http://www.w3.org/2000/svg">
<path fill-rule="evenodd" clip-rule="evenodd" d="M10.0015 5.20804C10.3467 5.20804 10.6265 5.48786 10.6265 5.83304V9.99971C10.6265 10.3449 10.3467 10.6247 10.0015 10.6247C9.65629 10.6247 9.37647 10.3449 9.37647 9.99971V5.83304C9.37647 5.48786 9.65629 5.20804 10.0015 5.20804Z" fill="#FFE600"/>
<path fill-rule="evenodd" clip-rule="evenodd" d="M10.4279 12.8676C10.6845 13.0985 10.7053 13.4937 10.4744 13.7502L10.466 13.7595C10.2351 14.016 9.83994 14.0368 9.58337 13.8059C9.3268 13.575 9.306 13.1798 9.53691 12.9233L9.54525 12.914C9.77616 12.6574 10.1713 12.6366 10.4279 12.8676Z" fill="#FFE600"/>
<path fill-rule="evenodd" clip-rule="evenodd" d="M9.50434 1.1366C9.83177 1.06384 10.1712 1.06384 10.4986 1.1366L16.8837 2.55552C17.6243 2.7201 18.1198 3.42417 18.0116 4.18187L16.4535 15.0881C16.4154 15.3546 16.2776 16.2611 15.339 17.0829C14.4112 17.8953 12.798 18.5414 10.0015 18.5414C7.20493 18.5414 5.59174 17.8953 4.66393 17.0829C3.72532 16.2611 3.5875 15.3546 3.54942 15.0881L1.99139 4.18187C1.88314 3.42417 2.37861 2.7201 3.11921 2.55552L9.50434 1.1366ZM10.2274 2.35684C10.0786 2.32376 9.92433 2.32376 9.7755 2.35684L3.39037 3.77575C3.28081 3.8001 3.2139 3.90065 3.22882 4.00509L4.7878 14.918C4.80987 15.0733 4.88709 15.6169 5.48738 16.1425C6.10734 16.6853 7.38135 17.2914 10.0015 17.2914C12.6216 17.2914 13.8956 16.6853 14.5156 16.1425C15.1159 15.6169 15.1931 15.0733 15.2151 14.918L16.7741 4.00509C16.789 3.90065 16.7221 3.8001 16.6126 3.77575L10.2274 2.35684Z" fill="#FFE600"/>
</svg>
