<svg width="526" height="220" viewBox="0 0 526 220" fill="none" xmlns="http://www.w3.org/2000/svg">
<rect width="526" height="220" fill="#1A1A24"/>
<path fill-rule="evenodd" clip-rule="evenodd" d="M74.375 33.6875H35.625C33.4849 33.6875 31.75 35.4224 31.75 37.5625V51.7983C31.75 73.5007 50.1127 80.7009 53.7891 81.924C54.5743 82.191 55.4257 82.191 56.2109 81.924C59.8922 80.7009 78.25 73.5007 78.25 51.7983V37.5625C78.25 35.4224 76.5151 33.6875 74.375 33.6875ZM74.375 51.8007C74.375 70.793 58.3059 77.1384 55 78.2427C51.7232 77.1505 35.625 70.81 35.625 51.8007V37.5625H74.375V51.8007ZM43.9417 58.3083C43.1847 57.5512 43.1847 56.3238 43.9417 55.5667C44.6988 54.8097 45.9262 54.8097 46.6833 55.5667L51.125 60.0084L63.3167 47.8167C64.0738 47.0597 65.3012 47.0597 66.0583 47.8167C66.8153 48.5738 66.8153 49.8012 66.0583 50.5583L52.4958 64.1208C52.1324 64.4846 51.6392 64.689 51.125 64.689C50.6108 64.689 50.1176 64.4846 49.7542 64.1208L43.9417 58.3083Z" fill="#FFE600"/>
<path d="M36.1025 132.696V153H32.5332V132.696H25.5937V129.193H43.042V132.696H36.1025ZM52.821 138.855C52.4447 138.645 52.0462 138.485 51.6256 138.374C51.2161 138.263 50.7236 138.208 50.1481 138.208C49.0303 138.208 48.167 138.595 47.5583 139.37C46.9495 140.134 46.6452 141.279 46.6452 142.807V153H43.1423V135.153H46.6452V136.847C46.8444 136.548 47.0879 136.277 47.3757 136.033C47.6634 135.779 47.9788 135.557 48.3219 135.369C48.6761 135.181 49.0524 135.037 49.4508 134.938C49.8493 134.827 50.2699 134.771 50.7126 134.771C51.432 134.771 52.0296 134.838 52.5055 134.971C52.9814 135.104 53.3965 135.286 53.7506 135.519L52.821 138.855ZM65.7044 153V151.24C65.2507 151.661 64.8744 151.971 64.5755 152.17C64.2767 152.358 63.9668 152.541 63.6458 152.718C63.3249 152.884 62.9154 153.033 62.4173 153.166C61.9303 153.31 61.3936 153.382 60.807 153.382C60.0876 153.382 59.3571 153.271 58.6156 153.05C57.8851 152.84 57.221 152.496 56.6234 152.021C56.0368 151.534 55.5553 150.908 55.179 150.145C54.8027 149.381 54.6146 148.451 54.6146 147.355C54.6146 146.359 54.7917 145.502 55.1458 144.782C55.5111 144.052 56.0091 143.449 56.64 142.973C57.2819 142.497 58.0345 142.148 58.8978 141.927C59.7721 141.694 60.7129 141.578 61.7201 141.578C62.6608 141.578 63.4522 141.645 64.0941 141.777C64.736 141.899 65.2728 142.06 65.7044 142.259V140.931C65.7044 139.957 65.4167 139.21 64.8411 138.689C64.2656 138.169 63.43 137.909 62.3343 137.909C61.4157 137.909 60.5856 137.998 59.8441 138.175C59.1025 138.352 58.3831 138.634 57.6859 139.021L56.3246 136.382C57.1768 135.851 58.0899 135.452 59.0638 135.187C60.0488 134.91 61.1722 134.771 62.4339 134.771C63.43 134.771 64.3376 134.893 65.1566 135.137C65.9867 135.38 66.695 135.751 67.2816 136.249C67.8682 136.747 68.3219 137.372 68.6429 138.125C68.9749 138.878 69.141 139.757 69.141 140.765V153H65.7044ZM65.7044 145.38C65.3724 145.225 65.0736 145.109 64.8079 145.031C64.5423 144.943 64.2656 144.871 63.9779 144.815C63.6901 144.749 63.3415 144.699 62.932 144.666C62.5335 144.622 62.0964 144.6 61.6204 144.6C60.4915 144.6 59.5951 144.838 58.931 145.313C58.278 145.789 57.9515 146.437 57.9515 147.256C57.9515 147.787 58.0456 148.241 58.2337 148.617C58.4219 148.982 58.6598 149.281 58.9476 149.514C59.2354 149.746 59.5729 149.923 59.9603 150.045C60.3587 150.156 60.8346 150.211 61.388 150.211C61.8529 150.211 62.3011 150.145 62.7328 150.012C63.1644 149.879 63.5684 149.707 63.9447 149.497C64.321 149.276 64.6585 149.032 64.9574 148.767C65.2562 148.49 65.5052 148.213 65.7044 147.937V145.38ZM84.332 153V142.906C84.332 141.29 84.0443 140.073 83.4688 139.254C82.8932 138.424 81.958 138.009 80.6631 138.009C80.0986 138.009 79.5785 138.108 79.1025 138.308C78.6266 138.507 78.2282 138.817 77.9072 139.237C77.5863 139.658 77.3539 140.156 77.21 140.731C77.0661 141.296 76.9942 141.905 76.9942 142.558V153H73.4912V135.153H76.9942V136.847C77.2155 136.526 77.4867 136.238 77.8076 135.983C78.1286 135.718 78.4828 135.496 78.8701 135.319C79.2575 135.142 79.6725 135.009 80.1152 134.921C80.558 134.821 81.0117 134.771 81.4766 134.771C82.5501 134.771 83.4798 134.949 84.2656 135.303C85.0625 135.646 85.721 136.144 86.2412 136.797C86.7725 137.45 87.1709 138.274 87.4365 139.271C87.7022 140.267 87.835 141.434 87.835 142.773V153H84.332ZM103.956 136.747L102.428 139.437C101.698 138.916 100.956 138.535 100.204 138.291C99.4622 138.036 98.6654 137.909 97.8132 137.909C96.9499 137.909 96.3246 138.064 95.9372 138.374C95.5498 138.673 95.3561 139.06 95.3561 139.536C95.3561 139.757 95.4004 139.968 95.4889 140.167C95.5886 140.366 95.7601 140.565 96.0036 140.765C96.2471 140.964 96.5791 141.174 96.9997 141.396C97.4313 141.617 97.9847 141.86 98.6598 142.126C99.6559 142.513 100.525 142.884 101.266 143.238C102.019 143.592 102.644 143.991 103.142 144.434C103.651 144.865 104.033 145.374 104.288 145.961C104.542 146.548 104.67 147.261 104.67 148.103C104.67 149.088 104.481 149.918 104.105 150.593C103.74 151.268 103.247 151.816 102.628 152.236C102.019 152.646 101.311 152.939 100.503 153.116C99.6947 153.293 98.8535 153.382 97.9792 153.382C96.8503 153.382 95.6605 153.177 94.4098 152.768C93.1703 152.347 92.0801 151.788 91.1393 151.091L92.7331 148.451C93.5742 149.027 94.443 149.464 95.3395 149.763C96.236 150.062 97.1048 150.211 97.946 150.211C99.0527 150.211 99.8718 150.039 100.403 149.696C100.934 149.353 101.2 148.866 101.2 148.235C101.2 147.892 101.106 147.593 100.918 147.339C100.729 147.073 100.453 146.83 100.088 146.608C99.7334 146.376 99.3018 146.155 98.7927 145.944C98.2835 145.723 97.708 145.491 97.0661 145.247C96.1032 144.871 95.2842 144.5 94.6091 144.135C93.945 143.77 93.4027 143.371 92.9821 142.939C92.5726 142.508 92.2738 142.026 92.0856 141.495C91.9085 140.964 91.82 140.344 91.82 139.636C91.82 138.839 91.9694 138.136 92.2682 137.527C92.5671 136.919 92.9876 136.415 93.53 136.017C94.0723 135.607 94.7142 135.297 95.4557 135.087C96.1973 134.877 97.0163 134.771 97.9128 134.771C99.0417 134.771 100.132 134.954 101.183 135.319C102.235 135.685 103.159 136.16 103.956 136.747ZM123.48 144.367C123.48 145.895 123.286 147.223 122.899 148.352C122.511 149.48 121.991 150.421 121.338 151.174C120.696 151.915 119.949 152.469 119.097 152.834C118.256 153.199 117.37 153.382 116.441 153.382C115.655 153.382 114.869 153.21 114.083 152.867C113.309 152.524 112.6 152.015 111.958 151.34V157.765L108.489 159.558V135.153H111.958V136.847C112.6 136.249 113.298 135.757 114.05 135.369C114.814 134.971 115.666 134.771 116.607 134.771C117.57 134.771 118.466 134.954 119.296 135.319C120.137 135.674 120.868 136.238 121.488 137.013C122.107 137.787 122.594 138.784 122.949 140.001C123.303 141.207 123.48 142.663 123.48 144.367ZM119.977 144.467C119.977 142.231 119.628 140.599 118.931 139.569C118.245 138.529 117.254 138.009 115.959 138.009C115.24 138.009 114.526 138.214 113.818 138.623C113.109 139.021 112.473 139.575 111.909 140.283V147.804C112.108 148.069 112.351 148.34 112.639 148.617C112.938 148.894 113.27 149.148 113.635 149.381C114 149.602 114.388 149.785 114.797 149.929C115.218 150.073 115.649 150.145 116.092 150.145C117.365 150.145 118.328 149.674 118.981 148.733C119.645 147.782 119.977 146.359 119.977 144.467ZM137.16 153V151.24C136.706 151.661 136.33 151.971 136.031 152.17C135.732 152.358 135.423 152.541 135.102 152.718C134.781 152.884 134.371 153.033 133.873 153.166C133.386 153.31 132.849 153.382 132.263 153.382C131.543 153.382 130.813 153.271 130.071 153.05C129.341 152.84 128.677 152.496 128.079 152.021C127.493 151.534 127.011 150.908 126.635 150.145C126.258 149.381 126.07 148.451 126.07 147.355C126.07 146.359 126.247 145.502 126.602 144.782C126.967 144.052 127.465 143.449 128.096 142.973C128.738 142.497 129.49 142.148 130.354 141.927C131.228 141.694 132.169 141.578 133.176 141.578C134.117 141.578 134.908 141.645 135.55 141.777C136.192 141.899 136.729 142.06 137.16 142.259V140.931C137.16 139.957 136.872 139.21 136.297 138.689C135.721 138.169 134.886 137.909 133.79 137.909C132.871 137.909 132.041 137.998 131.3 138.175C130.558 138.352 129.839 138.634 129.142 139.021L127.78 136.382C128.633 135.851 129.546 135.452 130.52 135.187C131.505 134.91 132.628 134.771 133.89 134.771C134.886 134.771 135.793 134.893 136.612 135.137C137.442 135.38 138.151 135.751 138.737 136.249C139.324 136.747 139.778 137.372 140.099 138.125C140.431 138.878 140.597 139.757 140.597 140.765V153H137.16ZM137.16 145.38C136.828 145.225 136.529 145.109 136.264 145.031C135.998 144.943 135.721 144.871 135.434 144.815C135.146 144.749 134.797 144.699 134.388 144.666C133.989 144.622 133.552 144.6 133.076 144.6C131.947 144.6 131.051 144.838 130.387 145.313C129.734 145.789 129.407 146.437 129.407 147.256C129.407 147.787 129.501 148.241 129.689 148.617C129.878 148.982 130.116 149.281 130.403 149.514C130.691 149.746 131.029 149.923 131.416 150.045C131.814 150.156 132.29 150.211 132.844 150.211C133.309 150.211 133.757 150.145 134.188 150.012C134.62 149.879 135.024 149.707 135.4 149.497C135.777 149.276 136.114 149.032 136.413 148.767C136.712 148.49 136.961 148.213 137.16 147.937V145.38ZM154.626 138.855C154.249 138.645 153.851 138.485 153.43 138.374C153.021 138.263 152.528 138.208 151.953 138.208C150.835 138.208 149.972 138.595 149.363 139.37C148.754 140.134 148.45 141.279 148.45 142.807V153H144.947V135.153H148.45V136.847C148.649 136.548 148.893 136.277 149.18 136.033C149.468 135.779 149.784 135.557 150.127 135.369C150.481 135.181 150.857 135.037 151.256 134.938C151.654 134.827 152.075 134.771 152.517 134.771C153.237 134.771 153.834 134.838 154.31 134.971C154.786 135.104 155.201 135.286 155.555 135.519L154.626 138.855ZM172.091 143.72C172.091 144.041 172.08 144.34 172.058 144.616C172.036 144.893 172.014 145.125 171.992 145.313H160.188C160.287 146.177 160.476 146.918 160.752 147.538C161.029 148.147 161.367 148.65 161.765 149.049C162.163 149.447 162.612 149.741 163.11 149.929C163.619 150.117 164.145 150.211 164.687 150.211C165.074 150.211 165.439 150.178 165.783 150.111C166.126 150.045 166.452 149.945 166.762 149.813C167.083 149.68 167.365 149.547 167.609 149.414C167.852 149.27 168.168 149.06 168.555 148.783L170.63 151.024C170.188 151.445 169.761 151.788 169.352 152.054C168.953 152.308 168.516 152.541 168.04 152.751C167.576 152.95 167.044 153.105 166.447 153.216C165.849 153.326 165.19 153.382 164.471 153.382C163.696 153.382 162.971 153.271 162.296 153.05C161.621 152.84 161.023 152.563 160.503 152.22C159.983 151.866 159.513 151.467 159.092 151.024C158.683 150.571 158.29 149.995 157.913 149.298C157.537 148.59 157.249 147.804 157.05 146.94C156.851 146.066 156.751 145.114 156.751 144.085C156.751 142.58 156.939 141.246 157.316 140.084C157.703 138.922 158.24 137.948 158.926 137.162C159.612 136.376 160.437 135.784 161.4 135.386C162.363 134.976 163.42 134.771 164.571 134.771C165.843 134.771 166.95 135.015 167.891 135.502C168.832 135.978 169.612 136.625 170.232 137.444C170.852 138.252 171.316 139.199 171.626 140.283C171.936 141.368 172.091 142.513 172.091 143.72ZM168.555 142.425C168.511 141.816 168.4 141.241 168.223 140.698C168.057 140.156 167.802 139.68 167.459 139.271C167.127 138.861 166.701 138.54 166.181 138.308C165.672 138.064 165.058 137.942 164.338 137.942C163.718 137.942 163.176 138.048 162.711 138.258C162.246 138.457 161.848 138.745 161.516 139.121C161.184 139.497 160.907 139.962 160.686 140.516C160.476 141.058 160.332 141.694 160.254 142.425H168.555ZM186.635 153V142.906C186.635 141.29 186.347 140.073 185.772 139.254C185.196 138.424 184.261 138.009 182.966 138.009C182.401 138.009 181.881 138.108 181.405 138.308C180.929 138.507 180.531 138.817 180.21 139.237C179.889 139.658 179.657 140.156 179.513 140.731C179.369 141.296 179.297 141.905 179.297 142.558V153H175.794V135.153H179.297V136.847C179.518 136.526 179.789 136.238 180.11 135.983C180.431 135.718 180.786 135.496 181.173 135.319C181.56 135.142 181.975 135.009 182.418 134.921C182.861 134.821 183.314 134.771 183.779 134.771C184.853 134.771 185.783 134.949 186.568 135.303C187.365 135.646 188.024 136.144 188.544 136.797C189.075 137.45 189.474 138.274 189.739 139.271C190.005 140.267 190.138 141.434 190.138 142.773V153H186.635ZM202.872 152.552C202.44 152.795 201.931 152.994 201.344 153.149C200.769 153.304 200.133 153.382 199.435 153.382C198.827 153.382 198.29 153.293 197.825 153.116C197.371 152.95 196.956 152.685 196.58 152.319C196.203 151.943 195.916 151.456 195.717 150.858C195.517 150.25 195.418 149.514 195.418 148.65V138.341H192.878V135.153H195.418V130.057L198.854 128.214V135.153H203.27V138.341H198.854V148.036C198.854 148.457 198.887 148.805 198.954 149.082C199.031 149.348 199.142 149.563 199.286 149.729C199.441 149.896 199.634 150.012 199.867 150.078C200.099 150.145 200.376 150.178 200.697 150.178C201.151 150.178 201.61 150.106 202.075 149.962C202.551 149.818 202.949 149.652 203.27 149.464L202.872 152.552ZM230.266 135.253C229.956 134.766 229.64 134.345 229.319 133.991C228.998 133.626 228.644 133.327 228.257 133.095C227.87 132.862 227.438 132.691 226.962 132.58C226.486 132.458 225.944 132.397 225.335 132.397C224.295 132.397 223.376 132.602 222.579 133.012C221.782 133.41 221.113 133.991 220.57 134.755C220.039 135.507 219.635 136.421 219.358 137.494C219.082 138.568 218.943 139.769 218.943 141.097C218.943 142.436 219.082 143.642 219.358 144.716C219.635 145.789 220.039 146.702 220.57 147.455C221.113 148.208 221.782 148.789 222.579 149.198C223.376 149.597 224.295 149.796 225.335 149.796C226.575 149.796 227.604 149.547 228.423 149.049C229.242 148.551 229.956 147.815 230.564 146.841L233.536 148.816C232.983 149.702 232.457 150.382 231.959 150.858C231.472 151.323 230.919 151.744 230.299 152.12C229.69 152.485 228.971 152.784 228.141 153.017C227.322 153.26 226.386 153.382 225.335 153.382C224.206 153.382 223.188 153.232 222.28 152.934C221.384 152.635 220.57 152.225 219.84 151.705C219.109 151.185 218.445 150.537 217.848 149.763C217.261 148.977 216.791 148.163 216.437 147.322C216.082 146.481 215.8 145.54 215.59 144.5C215.38 143.46 215.274 142.325 215.274 141.097C215.274 139.293 215.507 137.644 215.972 136.149C216.448 134.644 217.123 133.349 217.997 132.265C218.871 131.18 219.928 130.339 221.168 129.741C222.408 129.133 223.797 128.828 225.335 128.828C227.272 128.828 228.899 129.21 230.216 129.974C231.533 130.737 232.601 131.839 233.42 133.277L230.266 135.253ZM251.848 143.985C251.848 145.468 251.644 146.791 251.234 147.953C250.825 149.115 250.26 150.1 249.541 150.908C248.821 151.716 247.969 152.33 246.984 152.751C245.999 153.172 244.937 153.382 243.797 153.382C242.668 153.382 241.622 153.16 240.659 152.718C239.707 152.275 238.877 151.65 238.169 150.842C237.471 150.023 236.924 149.043 236.525 147.903C236.127 146.752 235.927 145.479 235.927 144.085C235.927 142.624 236.132 141.318 236.542 140.167C236.951 139.016 237.51 138.042 238.218 137.245C238.938 136.437 239.779 135.823 240.742 135.402C241.716 134.982 242.767 134.771 243.896 134.771C245.036 134.771 246.088 134.993 247.05 135.436C248.024 135.867 248.866 136.487 249.574 137.295C250.282 138.092 250.836 139.06 251.234 140.2C251.644 141.329 251.848 142.591 251.848 143.985ZM248.312 144.085C248.312 143.177 248.207 142.358 247.997 141.628C247.787 140.886 247.482 140.256 247.084 139.735C246.696 139.215 246.22 138.817 245.656 138.54C245.092 138.252 244.455 138.108 243.747 138.108C243.083 138.108 242.485 138.252 241.954 138.54C241.434 138.817 240.985 139.215 240.609 139.735C240.244 140.244 239.962 140.859 239.762 141.578C239.563 142.298 239.464 143.1 239.464 143.985C239.464 144.97 239.569 145.839 239.779 146.592C240 147.344 240.305 147.975 240.692 148.484C241.091 148.993 241.561 149.381 242.103 149.646C242.657 149.912 243.265 150.045 243.929 150.045C244.593 150.045 245.191 149.89 245.722 149.58C246.265 149.259 246.724 148.833 247.1 148.302C247.488 147.759 247.787 147.129 247.997 146.409C248.207 145.679 248.312 144.904 248.312 144.085ZM276.237 153V142.906C276.237 142.01 276.165 141.252 276.021 140.632C275.877 140.001 275.661 139.492 275.373 139.104C275.097 138.717 274.743 138.44 274.311 138.274C273.879 138.097 273.376 138.009 272.8 138.009C272.18 138.009 271.655 138.114 271.223 138.324C270.791 138.535 270.437 138.844 270.161 139.254C269.884 139.663 269.679 140.156 269.546 140.731C269.425 141.307 269.364 141.916 269.364 142.558V153H265.861V142.906C265.861 142.01 265.789 141.252 265.645 140.632C265.512 140.001 265.302 139.492 265.014 139.104C264.726 138.717 264.367 138.44 263.935 138.274C263.503 138.097 263 138.009 262.424 138.009C261.849 138.009 261.334 138.114 260.88 138.324C260.438 138.523 260.078 138.828 259.801 139.237C259.536 139.647 259.336 140.123 259.204 140.665C259.071 141.196 259.004 141.827 259.004 142.558V153H255.501V135.153H259.004V136.847C259.447 136.194 260.034 135.685 260.764 135.319C261.495 134.954 262.325 134.771 263.254 134.771C264.461 134.771 265.457 134.998 266.243 135.452C267.028 135.895 267.665 136.542 268.152 137.395C268.473 136.996 268.805 136.636 269.148 136.315C269.502 135.994 269.889 135.718 270.31 135.485C270.742 135.253 271.223 135.076 271.754 134.954C272.297 134.832 272.916 134.771 273.614 134.771C274.577 134.771 275.429 134.921 276.17 135.22C276.912 135.507 277.554 135.983 278.096 136.647C278.649 137.3 279.059 138.153 279.325 139.204C279.601 140.244 279.74 141.434 279.74 142.773V153H276.237ZM299.098 144.367C299.098 145.895 298.904 147.223 298.517 148.352C298.129 149.48 297.609 150.421 296.956 151.174C296.314 151.915 295.567 152.469 294.715 152.834C293.874 153.199 292.988 153.382 292.059 153.382C291.273 153.382 290.487 153.21 289.701 152.867C288.926 152.524 288.218 152.015 287.576 151.34V157.765L284.107 159.558V135.153H287.576V136.847C288.218 136.249 288.915 135.757 289.668 135.369C290.432 134.971 291.284 134.771 292.225 134.771C293.188 134.771 294.084 134.954 294.914 135.319C295.755 135.674 296.486 136.238 297.106 137.013C297.725 137.787 298.212 138.784 298.566 140.001C298.921 141.207 299.098 142.663 299.098 144.367ZM295.595 144.467C295.595 142.231 295.246 140.599 294.549 139.569C293.863 138.529 292.872 138.009 291.577 138.009C290.858 138.009 290.144 138.214 289.436 138.623C288.727 139.021 288.091 139.575 287.526 140.283V147.804C287.726 148.069 287.969 148.34 288.257 148.617C288.556 148.894 288.888 149.148 289.253 149.381C289.618 149.602 290.006 149.785 290.415 149.929C290.836 150.073 291.267 150.145 291.71 150.145C292.983 150.145 293.946 149.674 294.599 148.733C295.263 147.782 295.595 146.359 295.595 144.467ZM302.983 153V130.057L306.486 128.214V153H302.983ZM315.352 130.588C315.352 130.898 315.291 131.191 315.169 131.468C315.048 131.733 314.882 131.971 314.671 132.182C314.472 132.381 314.234 132.541 313.957 132.663C313.692 132.785 313.404 132.846 313.094 132.846C312.784 132.846 312.491 132.785 312.214 132.663C311.938 132.541 311.694 132.381 311.484 132.182C311.285 131.971 311.124 131.733 311.002 131.468C310.881 131.191 310.82 130.898 310.82 130.588C310.82 130.278 310.881 129.985 311.002 129.708C311.124 129.431 311.285 129.193 311.484 128.994C311.694 128.784 311.938 128.618 312.214 128.496C312.491 128.374 312.784 128.313 313.094 128.313C313.404 128.313 313.692 128.374 313.957 128.496C314.234 128.618 314.472 128.784 314.671 128.994C314.882 129.193 315.048 129.431 315.169 129.708C315.291 129.985 315.352 130.278 315.352 130.588ZM311.334 153V135.153H314.837V153H311.334ZM329.746 153V151.24C329.292 151.661 328.916 151.971 328.617 152.17C328.318 152.358 328.009 152.541 327.688 152.718C327.367 152.884 326.957 153.033 326.459 153.166C325.972 153.31 325.435 153.382 324.849 153.382C324.129 153.382 323.399 153.271 322.657 153.05C321.927 152.84 321.263 152.496 320.665 152.021C320.079 151.534 319.597 150.908 319.221 150.145C318.844 149.381 318.656 148.451 318.656 147.355C318.656 146.359 318.833 145.502 319.188 144.782C319.553 144.052 320.051 143.449 320.682 142.973C321.324 142.497 322.076 142.148 322.94 141.927C323.814 141.694 324.755 141.578 325.762 141.578C326.703 141.578 327.494 141.645 328.136 141.777C328.778 141.899 329.315 142.06 329.746 142.259V140.931C329.746 139.957 329.458 139.21 328.883 138.689C328.307 138.169 327.472 137.909 326.376 137.909C325.457 137.909 324.627 137.998 323.886 138.175C323.144 138.352 322.425 138.634 321.728 139.021L320.366 136.382C321.218 135.851 322.132 135.452 323.106 135.187C324.091 134.91 325.214 134.771 326.476 134.771C327.472 134.771 328.379 134.893 329.198 135.137C330.028 135.38 330.737 135.751 331.323 136.249C331.91 136.747 332.364 137.372 332.685 138.125C333.017 138.878 333.183 139.757 333.183 140.765V153H329.746ZM329.746 145.38C329.414 145.225 329.115 145.109 328.85 145.031C328.584 144.943 328.307 144.871 328.02 144.815C327.732 144.749 327.383 144.699 326.974 144.666C326.575 144.622 326.138 144.6 325.662 144.6C324.533 144.6 323.637 144.838 322.973 145.313C322.32 145.789 321.993 146.437 321.993 147.256C321.993 147.787 322.087 148.241 322.275 148.617C322.464 148.982 322.702 149.281 322.989 149.514C323.277 149.746 323.615 149.923 324.002 150.045C324.4 150.156 324.876 150.211 325.43 150.211C325.895 150.211 326.343 150.145 326.774 150.012C327.206 149.879 327.61 149.707 327.986 149.497C328.363 149.276 328.7 149.032 328.999 148.767C329.298 148.49 329.547 148.213 329.746 147.937V145.38ZM348.374 153V142.906C348.374 141.29 348.086 140.073 347.51 139.254C346.935 138.424 346 138.009 344.705 138.009C344.14 138.009 343.62 138.108 343.144 138.308C342.668 138.507 342.27 138.817 341.949 139.237C341.628 139.658 341.396 140.156 341.252 140.731C341.108 141.296 341.036 141.905 341.036 142.558V153H337.533V135.153H341.036V136.847C341.257 136.526 341.528 136.238 341.849 135.983C342.17 135.718 342.524 135.496 342.912 135.319C343.299 135.142 343.714 135.009 344.157 134.921C344.6 134.821 345.053 134.771 345.518 134.771C346.592 134.771 347.522 134.949 348.307 135.303C349.104 135.646 349.763 136.144 350.283 136.797C350.814 137.45 351.213 138.274 351.478 139.271C351.744 140.267 351.877 141.434 351.877 142.773V153H348.374ZM369.492 150.045C369.137 150.488 368.756 150.914 368.346 151.323C367.948 151.722 367.494 152.076 366.985 152.386C366.476 152.685 365.9 152.923 365.258 153.1C364.627 153.288 363.908 153.382 363.1 153.382C362.015 153.382 361.003 153.16 360.062 152.718C359.121 152.275 358.302 151.65 357.605 150.842C356.919 150.034 356.376 149.06 355.978 147.92C355.579 146.78 355.38 145.513 355.38 144.118C355.38 142.646 355.579 141.329 355.978 140.167C356.387 139.005 356.946 138.025 357.655 137.229C358.363 136.432 359.193 135.823 360.145 135.402C361.097 134.982 362.115 134.771 363.2 134.771C364.517 134.771 365.69 135.032 366.719 135.552C367.76 136.061 368.695 136.813 369.525 137.81L367.45 140.283C367.029 139.863 366.669 139.536 366.371 139.304C366.072 139.06 365.74 138.844 365.374 138.656C365.02 138.468 364.655 138.33 364.279 138.241C363.913 138.153 363.521 138.108 363.1 138.108C362.469 138.108 361.894 138.247 361.373 138.523C360.864 138.8 360.427 139.193 360.062 139.702C359.697 140.211 359.414 140.831 359.215 141.562C359.016 142.292 358.916 143.111 358.916 144.019C358.916 144.893 359.01 145.701 359.199 146.442C359.387 147.173 359.658 147.809 360.012 148.352C360.377 148.883 360.826 149.298 361.357 149.597C361.888 149.896 362.502 150.045 363.2 150.045C363.62 150.045 364.002 150.001 364.345 149.912C364.688 149.813 365.015 149.674 365.325 149.497C365.646 149.309 365.955 149.076 366.254 148.8C366.564 148.523 366.896 148.202 367.25 147.837L369.492 150.045ZM387.206 143.72C387.206 144.041 387.195 144.34 387.173 144.616C387.151 144.893 387.129 145.125 387.107 145.313H375.303C375.402 146.177 375.591 146.918 375.867 147.538C376.144 148.147 376.482 148.65 376.88 149.049C377.278 149.447 377.727 149.741 378.225 149.929C378.734 150.117 379.26 150.211 379.802 150.211C380.189 150.211 380.554 150.178 380.898 150.111C381.241 150.045 381.567 149.945 381.877 149.813C382.198 149.68 382.48 149.547 382.724 149.414C382.967 149.27 383.283 149.06 383.67 148.783L385.745 151.024C385.302 151.445 384.876 151.788 384.467 152.054C384.068 152.308 383.631 152.541 383.155 152.751C382.691 152.95 382.159 153.105 381.562 153.216C380.964 153.326 380.305 153.382 379.586 153.382C378.811 153.382 378.086 153.271 377.411 153.05C376.736 152.84 376.138 152.563 375.618 152.22C375.098 151.866 374.628 151.467 374.207 151.024C373.798 150.571 373.405 149.995 373.028 149.298C372.652 148.59 372.364 147.804 372.165 146.94C371.966 146.066 371.866 145.114 371.866 144.085C371.866 142.58 372.054 141.246 372.431 140.084C372.818 138.922 373.355 137.948 374.041 137.162C374.727 136.376 375.552 135.784 376.515 135.386C377.478 134.976 378.535 134.771 379.686 134.771C380.958 134.771 382.065 135.015 383.006 135.502C383.947 135.978 384.727 136.625 385.347 137.444C385.967 138.252 386.431 139.199 386.741 140.283C387.051 141.368 387.206 142.513 387.206 143.72ZM383.67 142.425C383.626 141.816 383.515 141.241 383.338 140.698C383.172 140.156 382.917 139.68 382.574 139.271C382.242 138.861 381.816 138.54 381.296 138.308C380.787 138.064 380.173 137.942 379.453 137.942C378.833 137.942 378.291 138.048 377.826 138.258C377.361 138.457 376.963 138.745 376.631 139.121C376.299 139.497 376.022 139.962 375.801 140.516C375.591 141.058 375.447 141.694 375.369 142.425H383.67Z" fill="#FFE600"/>
<path d="M466.445 141C466.445 131.182 474.405 123.223 484.223 123.223C494.041 123.223 502.001 131.182 502.001 141C502.001 150.819 494.041 158.778 484.223 158.778C474.405 158.778 466.445 150.819 466.445 141Z" fill="white"/>
<path d="M475.781 142.244L481.143 147.222L492.67 134.777" stroke="#1A1A24" stroke-width="1.77778" stroke-linecap="round" stroke-linejoin="round"/>
</svg>
