<svg width="20" height="20" viewBox="0 0 20 20" fill="none" xmlns="http://www.w3.org/2000/svg">
<path fill-rule="evenodd" clip-rule="evenodd" d="M10 4.65116C10.3853 4.65116 10.6977 4.96352 10.6977 5.34884V10.9302C10.6977 11.3155 10.3853 11.6279 10 11.6279C9.61469 11.6279 9.30233 11.3155 9.30233 10.9302V5.34884C9.30233 4.96352 9.61469 4.65116 10 4.65116Z" fill="#EA011D"/>
<path fill-rule="evenodd" clip-rule="evenodd" d="M10.476 14.1316C10.7624 14.3893 10.7856 14.8304 10.5279 15.1168L10.5186 15.1272C10.2608 15.4136 9.81968 15.4368 9.53328 15.179C9.24688 14.9213 9.22366 14.4801 9.48142 14.1937L9.49073 14.1834C9.74849 13.897 10.1896 13.8738 10.476 14.1316Z" fill="#EA011D"/>
<path fill-rule="evenodd" clip-rule="evenodd" d="M10 1.39535C5.24778 1.39535 1.39535 5.24778 1.39535 10C1.39535 14.7522 5.24778 18.6047 10 18.6047C14.7522 18.6047 18.6047 14.7522 18.6047 10C18.6047 5.24778 14.7522 1.39535 10 1.39535ZM0 10C0 4.47715 4.47715 0 10 0C15.5228 0 20 4.47715 20 10C20 15.5228 15.5228 20 10 20C4.47715 20 0 15.5228 0 10Z" fill="#EA011D"/>
</svg>
