<svg width="31" height="31" viewBox="0 0 31 31" fill="none" xmlns="http://www.w3.org/2000/svg">
<path fill-rule="evenodd" clip-rule="evenodd" d="M2.3125 4.23958C2.3125 3.17528 3.17528 2.3125 4.23958 2.3125H25.8229C26.8872 2.3125 27.75 3.17528 27.75 4.23958V25.8229C27.75 26.8872 26.8872 27.75 25.8229 27.75H4.23958C3.17528 27.75 2.3125 26.8872 2.3125 25.8229V4.23958ZM4.23958 0C1.89813 0 0 1.89813 0 4.23958V25.8229C0 28.1644 1.89813 30.0625 4.23958 30.0625H25.8229C28.1644 30.0625 30.0625 28.1644 30.0625 25.8229V4.23958C30.0625 1.89813 28.1644 0 25.8229 0H4.23958Z" fill="black"/>
<path fill-rule="evenodd" clip-rule="evenodd" d="M6.16667 7.32292C6.16667 6.68434 6.68434 6.16667 7.32292 6.16667L22.7396 6.16667C23.3782 6.16667 23.8958 6.68434 23.8958 7.32292C23.8958 7.9615 23.3782 8.47917 22.7396 8.47917L7.32292 8.47917C6.68434 8.47917 6.16667 7.9615 6.16667 7.32292Z" fill="black"/>
<path fill-rule="evenodd" clip-rule="evenodd" d="M6.16667 15.0312C6.16667 14.3927 6.68434 13.875 7.32292 13.875L22.7396 13.875C23.3782 13.875 23.8958 14.3927 23.8958 15.0313C23.8958 15.6698 23.3782 16.1875 22.7396 16.1875L7.32292 16.1875C6.68434 16.1875 6.16667 15.6698 6.16667 15.0312Z" fill="black"/>
<path fill-rule="evenodd" clip-rule="evenodd" d="M6.16667 22.7396C6.16667 22.101 6.68434 21.5833 7.32292 21.5833L16.5729 21.5833C17.2115 21.5833 17.7292 22.101 17.7292 22.7396C17.7292 23.3782 17.2115 23.8958 16.5729 23.8958L7.32292 23.8958C6.68434 23.8958 6.16667 23.3782 6.16667 22.7396Z" fill="black"/>
</svg>
