<svg width="235" height="138" viewBox="0 0 235 138" fill="none" xmlns="http://www.w3.org/2000/svg">
<path d="M9.19331 18L6.58885 12.8185H3.62798V18H1.69976V4.89542H7.44786C8.02054 4.89542 8.55971 4.97462 9.06537 5.13302C9.57713 5.28532 10.0249 5.52293 10.4087 5.84582C10.7925 6.16262 11.0972 6.56776 11.3226 7.06124C11.548 7.55471 11.6607 8.13653 11.6607 8.80669C11.6607 9.33063 11.5937 9.80583 11.4597 10.2323C11.3256 10.6527 11.1337 11.0243 10.8839 11.3472C10.6341 11.664 10.3326 11.932 9.97922 12.1514C9.62587 12.3707 9.22682 12.5352 8.78208 12.6448L11.4505 18H9.19331ZM9.67765 8.87066C9.67765 8.52949 9.62282 8.22792 9.51316 7.96595C9.40959 7.69788 9.26033 7.47551 9.06537 7.29884C8.87042 7.11607 8.63587 6.97899 8.36171 6.88761C8.08756 6.79622 7.78294 6.75053 7.44786 6.75053H3.62798V10.9634H7.44786C7.77685 10.9634 8.07537 10.9207 8.34343 10.8354C8.61759 10.7501 8.85214 10.6222 9.0471 10.4516C9.24814 10.2749 9.4035 10.0556 9.51316 9.79364C9.62282 9.53167 9.67765 9.22401 9.67765 8.87066ZM19.5198 18V17.0313C19.27 17.2628 19.0629 17.4334 18.8984 17.5431C18.7339 17.6466 18.5633 17.7472 18.3866 17.8446C18.2099 17.936 17.9845 18.0183 17.7104 18.0914C17.4423 18.1706 17.1468 18.2102 16.8239 18.2102C16.4279 18.2102 16.0259 18.1493 15.6177 18.0274C15.2156 17.9117 14.85 17.7228 14.521 17.4608C14.1982 17.1928 13.9331 16.8486 13.726 16.4282C13.5189 16.0078 13.4153 15.4961 13.4153 14.8929C13.4153 14.3446 13.5128 13.8725 13.7077 13.4765C13.9088 13.0744 14.1829 12.7423 14.5302 12.4804C14.8835 12.2184 15.2978 12.0265 15.773 11.9046C16.2543 11.7767 16.7722 11.7127 17.3266 11.7127C17.8444 11.7127 18.28 11.7493 18.6334 11.8224C18.9867 11.8894 19.2822 11.9777 19.5198 12.0874V11.3563C19.5198 10.8202 19.3614 10.409 19.0446 10.1226C18.7278 9.83629 18.2678 9.69312 17.6647 9.69312C17.159 9.69312 16.7021 9.74186 16.2939 9.83934C15.8857 9.93681 15.4897 10.0922 15.1059 10.3054L14.3566 8.85238C14.8257 8.55995 15.3283 8.34062 15.8644 8.19441C16.4066 8.0421 17.025 7.96595 17.7195 7.96595C18.2678 7.96595 18.7674 8.03296 19.2182 8.16699C19.6752 8.30102 20.0651 8.50512 20.388 8.77927C20.7108 9.05343 20.9606 9.39764 21.1373 9.81192C21.3201 10.2262 21.4115 10.7105 21.4115 11.2649V18H19.5198ZM19.5198 13.8054C19.337 13.7201 19.1725 13.6562 19.0263 13.6135C18.8801 13.5648 18.7278 13.5252 18.5694 13.4947C18.411 13.4582 18.2191 13.4308 17.9937 13.4125C17.7743 13.3881 17.5337 13.3759 17.2717 13.3759C16.6503 13.3759 16.1568 13.5069 15.7913 13.7689C15.4319 14.0309 15.2521 14.3873 15.2521 14.8381C15.2521 15.1305 15.3039 15.3803 15.4075 15.5874C15.5111 15.7885 15.642 15.953 15.8004 16.0809C15.9588 16.2089 16.1447 16.3063 16.3579 16.3734C16.5772 16.4343 16.8392 16.4647 17.1438 16.4647C17.3997 16.4647 17.6464 16.4282 17.884 16.3551C18.1216 16.282 18.344 16.1875 18.5511 16.0718C18.7583 15.9499 18.9441 15.8159 19.1086 15.6697C19.2731 15.5174 19.4101 15.3651 19.5198 15.2128V13.8054ZM28.8776 17.7533C28.64 17.8873 28.3598 17.997 28.0369 18.0822C27.7201 18.1675 27.3698 18.2102 26.9859 18.2102C26.6509 18.2102 26.3554 18.1614 26.0995 18.064C25.8497 17.9726 25.6213 17.8264 25.4141 17.6253C25.207 17.4182 25.0486 17.1501 24.9389 16.8211C24.8293 16.4861 24.7744 16.0809 24.7744 15.6057V9.93072H23.3762V8.17613H24.7744V5.37062L26.6661 4.35625V8.17613H29.0969V9.93072H26.6661V15.2676C26.6661 15.4991 26.6844 15.691 26.7209 15.8433C26.7636 15.9895 26.8245 16.1083 26.9037 16.1997C26.989 16.2911 27.0956 16.3551 27.2235 16.3916C27.3515 16.4282 27.5038 16.4465 27.6805 16.4465C27.9302 16.4465 28.1831 16.4069 28.439 16.3277C28.7009 16.2485 28.9203 16.1571 29.0969 16.0535L28.8776 17.7533ZM39.3138 12.8916C39.3138 13.0683 39.3077 13.2328 39.2955 13.3851C39.2833 13.5374 39.2711 13.6653 39.2589 13.7689H32.7615C32.8163 14.2441 32.9199 14.6523 33.0722 14.9934C33.2245 15.3285 33.4103 15.6057 33.6296 15.825C33.8489 16.0444 34.0957 16.2058 34.3698 16.3094C34.6501 16.413 34.9395 16.4647 35.238 16.4647C35.4512 16.4647 35.6523 16.4465 35.8411 16.4099C36.03 16.3734 36.2097 16.3185 36.3803 16.2454C36.557 16.1723 36.7123 16.0992 36.8464 16.0261C36.9804 15.9469 37.154 15.8311 37.3673 15.6788L38.5096 16.9125C38.2659 17.144 38.0313 17.3329 37.8059 17.4791C37.5866 17.6192 37.3459 17.7472 37.084 17.8629C36.8281 17.9726 36.5357 18.0579 36.2067 18.1188C35.8777 18.1797 35.5152 18.2102 35.1192 18.2102C34.6927 18.2102 34.2937 18.1493 33.922 18.0274C33.5504 17.9117 33.2214 17.7594 32.9351 17.5705C32.6488 17.3755 32.3898 17.1562 32.1583 16.9125C31.9329 16.6627 31.7166 16.3459 31.5095 15.9621C31.3023 15.5722 31.1439 15.1397 31.0343 14.6645C30.9246 14.1832 30.8698 13.6592 30.8698 13.0926C30.8698 12.2641 30.9734 11.53 31.1805 10.8903C31.3937 10.2506 31.6892 9.71444 32.0669 9.28189C32.4447 8.84933 32.8985 8.52339 33.4286 8.30407C33.9586 8.07865 34.5404 7.96595 35.174 7.96595C35.8746 7.96595 36.4839 8.09998 37.0017 8.36804C37.5196 8.63001 37.9491 8.98641 38.2902 9.43724C38.6314 9.88198 38.8873 10.4029 39.0579 10.9999C39.2285 11.597 39.3138 12.2275 39.3138 12.8916ZM37.3673 12.1788C37.3429 11.8437 37.282 11.5269 37.1845 11.2284C37.0931 10.9299 36.953 10.6679 36.7641 10.4425C36.5813 10.2171 36.3468 10.0404 36.0605 9.91244C35.7802 9.77841 35.4421 9.7114 35.0461 9.7114C34.7049 9.7114 34.4064 9.76927 34.1505 9.88503C33.8946 9.99469 33.6753 10.1531 33.4925 10.3602C33.3098 10.5674 33.1575 10.8232 33.0356 11.1279C32.9199 11.4264 32.8407 11.7767 32.798 12.1788H37.3673ZM52.6834 18V17.0679C52.4397 17.403 52.0985 17.6771 51.6598 17.8903C51.2212 18.1036 50.7369 18.2102 50.2068 18.2102C49.0615 18.2102 48.1903 17.8416 47.5932 17.1044C47.0023 16.3673 46.7068 15.2676 46.7068 13.8054V8.17613H48.635V13.7323C48.635 14.634 48.7934 15.3102 49.1102 15.7611C49.4331 16.2058 49.9509 16.4282 50.6637 16.4282C51.3095 16.4282 51.8061 16.2119 52.1533 15.7793C52.5067 15.3407 52.6834 14.7223 52.6834 13.9242V8.17613H54.6116V18H52.6834ZM63.9328 9.05343L63.0921 10.5339C62.69 10.2475 62.2818 10.0373 61.8675 9.9033C61.4593 9.76318 61.0207 9.69312 60.5516 9.69312C60.0764 9.69312 59.7322 9.77841 59.5189 9.949C59.3057 10.1135 59.1991 10.3267 59.1991 10.5887C59.1991 10.7105 59.2235 10.8263 59.2722 10.936C59.327 11.0456 59.4215 11.1553 59.5555 11.2649C59.6895 11.3746 59.8723 11.4904 60.1038 11.6122C60.3414 11.734 60.646 11.8681 61.0176 12.0143C61.566 12.2275 62.0442 12.4316 62.4524 12.6266C62.8667 12.8215 63.2109 13.0409 63.485 13.2845C63.7653 13.5221 63.9755 13.8024 64.1156 14.1253C64.2557 14.4482 64.3258 14.8411 64.3258 15.3041C64.3258 15.8464 64.2222 16.3033 64.0151 16.6749C63.814 17.0466 63.5429 17.3481 63.2017 17.5796C62.8667 17.805 62.4768 17.9665 62.032 18.064C61.5873 18.1614 61.1243 18.2102 60.643 18.2102C60.0216 18.2102 59.3666 18.0975 58.6782 17.8721C57.9959 17.6406 57.3958 17.3329 56.8779 16.9491L57.7552 15.4961C58.2182 15.8129 58.6965 16.0535 59.19 16.218C59.6834 16.3825 60.1617 16.4647 60.6247 16.4647C61.2339 16.4647 61.6848 16.3703 61.9772 16.1814C62.2696 15.9926 62.4158 15.7245 62.4158 15.3773C62.4158 15.1884 62.3641 15.0239 62.2605 14.8838C62.1569 14.7376 62.0046 14.6035 61.8036 14.4817C61.6086 14.3537 61.371 14.2319 61.0908 14.1161C60.8105 13.9943 60.4937 13.8664 60.1404 13.7323C59.6103 13.5252 59.1595 13.3211 58.7879 13.1201C58.4223 12.919 58.1238 12.6997 57.8923 12.4621C57.6669 12.2245 57.5024 11.9595 57.3988 11.667C57.3013 11.3746 57.2526 11.0334 57.2526 10.6435C57.2526 10.2049 57.3348 9.81801 57.4993 9.48293C57.6638 9.14786 57.8953 8.87066 58.1939 8.65133C58.4924 8.42592 58.8457 8.25533 59.2539 8.13958C59.6621 8.02382 60.1129 7.96595 60.6064 7.96595C61.2278 7.96595 61.8279 8.06647 62.4067 8.26752C62.9855 8.46856 63.4942 8.73053 63.9328 9.05343Z" fill="#FCFCFC"/>
<g clip-path="url(#clip0_2265_29011)">
<path d="M21.259 37.3245C21.3556 37.0755 21.7078 37.0755 21.8044 37.3245L27.161 51.1427C27.2013 51.2467 27.2974 51.3188 27.4086 51.3283L41.3474 52.5273C41.6009 52.5491 41.7076 52.8618 41.5203 53.0339L30.8709 62.8216C30.7941 62.8922 30.7607 62.9984 30.7833 63.1003L34.0315 77.7106C34.0885 77.9668 33.8053 78.1625 33.5858 78.0187L21.692 70.2242C21.5947 70.1604 21.4688 70.1604 21.3714 70.2242L9.47762 78.0187C9.25813 78.1625 8.97492 77.9668 9.03187 77.7106L12.2801 63.1003C12.3027 62.9984 12.2693 62.8922 12.1925 62.8216L1.54314 53.0339C1.35582 52.8618 1.46248 52.5491 1.71596 52.5273L15.6548 51.3283C15.766 51.3188 15.8621 51.2467 15.9024 51.1427L21.259 37.3245Z" fill="#D7D7DC"/>
</g>
<g clip-path="url(#clip1_2265_29011)">
<path d="M69.0012 37.3245C69.0977 37.0755 69.45 37.0755 69.5466 37.3245L74.9032 51.1427C74.9435 51.2467 75.0396 51.3188 75.1508 51.3283L89.0896 52.5273C89.3431 52.5491 89.4498 52.8618 89.2625 53.0339L78.6131 62.8216C78.5363 62.8922 78.5029 62.9984 78.5255 63.1003L81.7737 77.7106C81.8307 77.9668 81.5475 78.1625 81.328 78.0187L69.4342 70.2242C69.3368 70.1604 69.2109 70.1604 69.1136 70.2242L57.2198 78.0187C57.0003 78.1625 56.7171 77.9668 56.7741 77.7106L60.0222 63.1003C60.0449 62.9984 60.0115 62.8922 59.9347 62.8216L49.2853 53.0339C49.098 52.8618 49.2047 52.5491 49.4582 52.5273L63.397 51.3283C63.5082 51.3188 63.6043 51.2467 63.6446 51.1427L69.0012 37.3245Z" fill="#D7D7DC"/>
</g>
<g clip-path="url(#clip2_2265_29011)">
<path d="M116.743 37.3245C116.84 37.0755 117.192 37.0755 117.289 37.3245L122.645 51.1427C122.686 51.2467 122.782 51.3188 122.893 51.3283L136.832 52.5273C137.085 52.5491 137.192 52.8618 137.005 53.0339L126.355 62.8216C126.278 62.8922 126.245 62.9984 126.268 63.1003L129.516 77.7106C129.573 77.9668 129.29 78.1625 129.07 78.0187L117.176 70.2242C117.079 70.1604 116.953 70.1604 116.856 70.2242L104.962 78.0187C104.743 78.1625 104.459 77.9668 104.516 77.7106L107.764 63.1003C107.787 62.9984 107.754 62.8922 107.677 62.8216L97.0275 53.0339C96.8402 52.8618 96.9469 52.5491 97.2003 52.5273L111.139 51.3283C111.25 51.3188 111.346 51.2467 111.387 51.1427L116.743 37.3245Z" fill="#D7D7DC"/>
</g>
<g clip-path="url(#clip3_2265_29011)">
<path d="M164.486 37.3245C164.582 37.0755 164.934 37.0755 165.031 37.3245L170.388 51.1427C170.428 51.2467 170.524 51.3188 170.635 51.3283L184.574 52.5273C184.827 52.5491 184.934 52.8618 184.747 53.0339L174.097 62.8216C174.021 62.8922 173.987 62.9984 174.01 63.1003L177.258 77.7106C177.315 77.9668 177.032 78.1625 176.812 78.0187L164.919 70.2242C164.821 70.1604 164.695 70.1604 164.598 70.2242L152.704 78.0187C152.485 78.1625 152.201 77.9668 152.258 77.7106L155.507 63.1003C155.529 62.9984 155.496 62.8922 155.419 62.8216L144.77 53.034C144.582 52.8618 144.689 52.5491 144.943 52.5273L158.881 51.3283C158.993 51.3188 159.089 51.2467 159.129 51.1427L164.486 37.3245Z" fill="#D7D7DC"/>
</g>
<g clip-path="url(#clip4_2265_29011)">
<path d="M212.228 37.3245C212.324 37.0755 212.677 37.0755 212.773 37.3245L218.13 51.1427C218.17 51.2467 218.266 51.3188 218.377 51.3283L232.316 52.5273C232.57 52.5491 232.676 52.8618 232.489 53.0339L221.84 62.8216C221.763 62.8922 221.729 62.9984 221.752 63.1003L225 77.7106C225.057 77.9668 224.774 78.1625 224.555 78.0187L212.661 70.2242C212.563 70.1604 212.438 70.1604 212.34 70.2242L200.446 78.0187C200.227 78.1625 199.944 77.9668 200.001 77.7106L203.249 63.1003C203.271 62.9984 203.238 62.8922 203.161 62.8216L192.512 53.034C192.325 52.8618 192.431 52.5491 192.685 52.5273L206.624 51.3283C206.735 51.3188 206.831 51.2467 206.871 51.1427L212.228 37.3245Z" fill="#D7D7DC"/>
</g>
<path d="M0 111.021C0 109.721 1.05348 108.668 2.35301 108.668H53.7021C55.0016 108.668 56.0551 109.721 56.0551 111.021V135.012C56.0551 136.312 55.0016 137.365 53.7021 137.365H2.35301C1.05348 137.365 0 136.312 0 135.012V111.021Z" fill="#F3F3F5"/>
<path d="M16.4286 124.397C16.4286 124.73 16.3738 125.033 16.2641 125.307C16.1578 125.582 15.9933 125.818 15.7705 126.017C15.5477 126.212 15.2649 126.365 14.9221 126.474C14.5794 126.581 14.1715 126.634 13.6984 126.634C13.4311 126.634 13.1723 126.605 12.9221 126.546C12.6753 126.492 12.4405 126.413 12.2177 126.31C11.9983 126.207 11.7909 126.082 11.5955 125.935C11.4036 125.787 11.2305 125.623 11.0763 125.441L11.8681 124.675C11.9914 124.809 12.1286 124.93 12.2794 125.04C12.4302 125.146 12.5879 125.237 12.7524 125.313C12.9169 125.388 13.0866 125.446 13.2614 125.487C13.4362 125.528 13.611 125.549 13.7858 125.549C14.3069 125.549 14.6908 125.46 14.9375 125.282C15.1878 125.103 15.3129 124.834 15.3129 124.474C15.3129 124.33 15.2837 124.204 15.2255 124.094C15.1672 123.984 15.0729 123.883 14.9427 123.791C14.8124 123.695 14.6411 123.604 14.4285 123.518C14.216 123.432 13.9555 123.343 13.647 123.251C13.2563 123.134 12.9169 123.018 12.629 122.901C12.3411 122.785 12.1011 122.647 11.9092 122.49C11.7207 122.329 11.5784 122.137 11.4824 121.914C11.3899 121.688 11.3436 121.41 11.3436 121.081C11.3436 120.762 11.407 120.476 11.5339 120.222C11.6607 119.969 11.8321 119.755 12.048 119.58C12.2674 119.401 12.5245 119.266 12.8192 119.174C13.1174 119.078 13.4362 119.03 13.7756 119.03C14.0566 119.033 14.3034 119.057 14.5159 119.102C14.7319 119.146 14.9393 119.215 15.1381 119.307C15.3403 119.4 15.522 119.503 15.6831 119.616C15.8442 119.725 16.0121 119.862 16.1869 120.027L15.4054 120.819C15.2649 120.678 15.1381 120.57 15.025 120.495C14.9118 120.419 14.7936 120.354 14.6702 120.3C14.5502 120.245 14.408 120.2 14.2434 120.166C14.0823 120.132 13.8972 120.114 13.6882 120.114C13.4722 120.114 13.2871 120.14 13.1329 120.192C12.9786 120.24 12.8501 120.305 12.7473 120.387C12.6479 120.469 12.5742 120.567 12.5262 120.68C12.4816 120.79 12.4593 120.906 12.4593 121.03C12.4593 121.16 12.4833 121.275 12.5313 121.374C12.5793 121.473 12.6633 121.568 12.7832 121.657C12.9066 121.743 13.0712 121.827 13.2768 121.909C13.4859 121.991 13.7499 122.08 14.0686 122.176C14.432 122.286 14.7593 122.402 15.0507 122.526C15.342 122.646 15.5888 122.79 15.791 122.958C15.9967 123.126 16.1544 123.326 16.2641 123.559C16.3738 123.789 16.4286 124.068 16.4286 124.397ZM21.1382 126.516V125.991C21.0011 126.18 20.8092 126.334 20.5624 126.454C20.3156 126.574 20.0431 126.634 19.7449 126.634C19.1005 126.634 18.6103 126.427 18.2744 126.012C17.9419 125.597 17.7757 124.978 17.7757 124.156V120.988H18.8605V124.115C18.8605 124.622 18.9497 125.002 19.1279 125.256C19.3096 125.506 19.6009 125.631 20.002 125.631C20.3653 125.631 20.6447 125.51 20.84 125.266C21.0388 125.019 21.1382 124.672 21.1382 124.222V120.988H22.2231V126.516H21.1382ZM28.4701 123.842C28.4701 124.315 28.4101 124.726 28.2901 125.076C28.1702 125.426 28.0091 125.717 27.8068 125.95C27.608 126.18 27.3766 126.351 27.1127 126.464C26.8522 126.577 26.578 126.634 26.2901 126.634C26.0227 126.634 25.7639 126.572 25.5137 126.449C25.2635 126.325 25.0595 126.176 24.9019 126.001V126.516H23.8273V119.4L24.9019 118.839V121.513C25.015 121.41 25.1178 121.326 25.2103 121.261C25.3029 121.196 25.4006 121.134 25.5034 121.076C25.6062 121.018 25.7262 120.97 25.8633 120.932C26.0004 120.891 26.1598 120.87 26.3415 120.87C26.6397 120.87 26.9173 120.927 27.1744 121.04C27.4349 121.15 27.6611 121.324 27.8531 121.564C28.045 121.804 28.1959 122.113 28.3055 122.49C28.4152 122.863 28.4701 123.314 28.4701 123.842ZM27.3852 123.873C27.3852 123.18 27.2772 122.675 27.0613 122.356C26.8488 122.034 26.542 121.873 26.141 121.873C26.0107 121.873 25.8856 121.893 25.7656 121.935C25.6491 121.972 25.536 122.024 25.4263 122.089C25.32 122.154 25.2206 122.229 25.1281 122.315C25.039 122.401 24.9584 122.488 24.8864 122.577V124.906C24.9481 124.989 25.0235 125.073 25.1127 125.158C25.2052 125.244 25.308 125.323 25.4211 125.395C25.5343 125.463 25.6542 125.52 25.7811 125.564C25.9113 125.609 26.045 125.631 26.1821 125.631C26.5763 125.631 26.8745 125.486 27.0767 125.194C27.2824 124.899 27.3852 124.459 27.3852 123.873ZM36.2544 126.516V123.39C36.2544 123.112 36.2321 122.877 36.1875 122.685C36.143 122.49 36.0761 122.332 35.987 122.212C35.9013 122.092 35.7916 122.006 35.6579 121.955C35.5243 121.9 35.3683 121.873 35.1901 121.873C34.9981 121.873 34.8353 121.905 34.7016 121.971C34.5679 122.036 34.4583 122.132 34.3726 122.258C34.2869 122.385 34.2235 122.538 34.1823 122.716C34.1446 122.894 34.1258 123.083 34.1258 123.282V126.516H33.0409V123.39C33.0409 123.112 33.0186 122.877 32.9741 122.685C32.9329 122.49 32.8678 122.332 32.7787 122.212C32.6896 122.092 32.5782 122.006 32.4445 121.955C32.3108 121.9 32.1548 121.873 31.9766 121.873C31.7984 121.873 31.639 121.905 31.4984 121.971C31.3613 122.032 31.2499 122.126 31.1642 122.253C31.082 122.38 31.0203 122.528 30.9791 122.695C30.938 122.86 30.9175 123.055 30.9175 123.282V126.516H29.8326V120.988H30.9175V121.513C31.0546 121.311 31.2362 121.153 31.4625 121.04C31.6887 120.927 31.9458 120.87 32.2337 120.87C32.6073 120.87 32.9158 120.94 33.1592 121.081C33.4025 121.218 33.5996 121.419 33.7504 121.683C33.8498 121.559 33.9527 121.448 34.0589 121.348C34.1686 121.249 34.2886 121.163 34.4188 121.091C34.5525 121.019 34.7016 120.964 34.8662 120.927C35.0341 120.889 35.2261 120.87 35.442 120.87C35.7402 120.87 36.0041 120.916 36.2338 121.009C36.4635 121.098 36.6623 121.246 36.8302 121.451C37.0016 121.653 37.1284 121.917 37.2107 122.243C37.2964 122.565 37.3392 122.934 37.3392 123.348V126.516H36.2544ZM40.1979 119.575C40.1979 119.671 40.1791 119.761 40.1414 119.847C40.1037 119.929 40.0523 120.003 39.9871 120.068C39.9254 120.13 39.8517 120.18 39.766 120.217C39.6838 120.255 39.5947 120.274 39.4987 120.274C39.4027 120.274 39.3119 120.255 39.2262 120.217C39.1405 120.18 39.0651 120.13 39 120.068C38.9383 120.003 38.8886 119.929 38.8508 119.847C38.8131 119.761 38.7943 119.671 38.7943 119.575C38.7943 119.479 38.8131 119.388 38.8508 119.302C38.8886 119.216 38.9383 119.143 39 119.081C39.0651 119.016 39.1405 118.964 39.2262 118.927C39.3119 118.889 39.4027 118.87 39.4987 118.87C39.5947 118.87 39.6838 118.889 39.766 118.927C39.8517 118.964 39.9254 119.016 39.9871 119.081C40.0523 119.143 40.1037 119.216 40.1414 119.302C40.1791 119.388 40.1979 119.479 40.1979 119.575ZM38.9537 126.516V120.988H40.0385V126.516H38.9537ZM44.342 126.377C44.2083 126.452 44.0507 126.514 43.869 126.562C43.6907 126.61 43.4937 126.634 43.2777 126.634C43.0892 126.634 42.9229 126.606 42.779 126.552C42.6384 126.5 42.5099 126.418 42.3934 126.305C42.2768 126.188 42.1877 126.037 42.126 125.852C42.0643 125.664 42.0335 125.436 42.0335 125.169V121.976H41.2468V120.988H42.0335V119.41L43.0978 118.839V120.988H44.4654V121.976H43.0978V124.978C43.0978 125.109 43.108 125.217 43.1286 125.302C43.1526 125.384 43.1869 125.451 43.2314 125.503C43.2794 125.554 43.3394 125.59 43.4114 125.611C43.4834 125.631 43.5691 125.642 43.6685 125.642C43.809 125.642 43.9513 125.619 44.0952 125.575C44.2426 125.53 44.366 125.479 44.4654 125.42L44.342 126.377Z" fill="#2E2E38"/>
<defs>
<clipPath id="clip0_2265_29011">
<rect width="43.0634" height="46.2042" fill="white" transform="translate(0 35.4648)"/>
</clipPath>
<clipPath id="clip1_2265_29011">
<rect width="43.0634" height="46.2042" fill="white" transform="translate(47.7422 35.4648)"/>
</clipPath>
<clipPath id="clip2_2265_29011">
<rect width="43.0634" height="46.2042" fill="white" transform="translate(95.4844 35.4648)"/>
</clipPath>
<clipPath id="clip3_2265_29011">
<rect width="43.0634" height="46.2042" fill="white" transform="translate(143.227 35.4648)"/>
</clipPath>
<clipPath id="clip4_2265_29011">
<rect width="43.0634" height="46.2042" fill="white" transform="translate(190.969 35.4648)"/>
</clipPath>
</defs>
</svg>
